<svg width="360" height="220" viewBox="0 0 360 220" fill="none" xmlns="http://www.w3.org/2000/svg">
<rect width="360" height="220" rx="30" fill="url(#paint0_linear_8_135)"/>
<path d="M114.012 153.464C116.828 153.464 118.791 153.293 119.9 152.952C121.095 152.611 121.777 152.184 121.948 151.672C122.119 151.075 121.991 150.392 121.564 149.624C121.223 148.856 120.924 148.088 120.668 147.32C120.412 146.467 120.369 145.613 120.54 144.76C120.711 143.821 121.521 142.925 122.972 142.072C124.167 141.389 125.276 141.219 126.3 141.56C127.409 141.901 128.22 142.541 128.732 143.48C129.329 144.419 129.585 145.571 129.5 146.936C129.415 148.216 128.817 149.453 127.708 150.648C126.684 151.843 125.063 152.867 122.844 153.72C120.625 154.573 117.681 155 114.012 155C109.916 155 106.716 154.616 104.412 153.848C102.193 152.995 100.572 151.757 99.548 150.136C98.524 148.515 97.9267 146.552 97.756 144.248C97.5853 141.859 97.5 139.043 97.5 135.8C97.4147 125.56 97.4147 117.155 97.5 110.584C97.5 104.013 97.5 98.808 97.5 94.968V84.6C97.5 82.552 97.5853 80.4187 97.756 78.2C97.9267 75.896 98.524 73.8053 99.548 71.928C100.572 70.0507 102.193 68.5147 104.412 67.32C106.631 66.04 109.788 65.4 113.884 65.4C117.553 65.4 120.497 65.8267 122.716 66.68C124.935 67.5333 126.556 68.5573 127.58 69.752C128.689 70.9467 129.287 72.2267 129.372 73.592C129.457 74.872 129.201 75.9813 128.604 76.92C128.092 77.8587 127.281 78.5413 126.172 78.968C125.148 79.3093 124.039 79.096 122.844 78.328C121.393 77.4747 120.583 76.6213 120.412 75.768C120.241 74.8293 120.284 73.976 120.54 73.208C120.796 72.3547 121.095 71.544 121.436 70.776C121.863 70.008 121.991 69.368 121.82 68.856C121.649 68.2587 120.967 67.7893 119.772 67.448C118.663 67.1067 116.7 66.936 113.884 66.936C112.177 66.936 110.897 67.5333 110.044 68.728C109.191 69.8373 108.551 71.288 108.124 73.08C107.697 74.7867 107.441 76.7067 107.356 78.84C107.356 80.888 107.356 82.808 107.356 84.6V96.888C107.356 101.069 107.313 106.403 107.228 112.888C107.228 119.288 107.271 126.925 107.356 135.8C107.356 138.616 107.399 141.133 107.484 143.352C107.569 145.485 107.783 147.32 108.124 148.856C108.551 150.307 109.191 151.459 110.044 152.312C110.983 153.08 112.305 153.464 114.012 153.464ZM137.045 135.8C136.96 125.56 136.917 117.155 136.917 110.584C137.002 104.013 137.045 98.808 137.045 94.968V84.6C137.045 82.552 137.13 80.4187 137.301 78.2C137.472 75.896 138.069 73.8053 139.093 71.928C140.117 70.0507 141.738 68.5147 143.957 67.32C146.261 66.04 149.461 65.4 153.557 65.4C157.738 65.4 160.938 65.9547 163.157 67.064C165.461 68.088 167.125 69.496 168.149 71.288C169.258 72.9947 169.898 75 170.069 77.304C170.24 79.608 170.282 82.04 170.197 84.6C170.197 91.0853 170.197 96.8027 170.197 101.752C170.282 106.616 170.325 110.883 170.325 114.552C170.325 118.136 170.325 121.165 170.325 123.64C170.41 126.115 170.453 128.12 170.453 129.656C170.453 133.325 170.496 135.373 170.581 135.8C170.581 139.043 170.496 141.859 170.325 144.248C170.154 146.637 169.514 148.643 168.405 150.264C167.381 151.8 165.717 152.995 163.413 153.848C161.109 154.616 157.824 155 153.557 155C149.461 155 146.261 154.616 143.957 153.848C141.738 152.995 140.117 151.757 139.093 150.136C138.069 148.515 137.472 146.552 137.301 144.248C137.13 141.859 137.045 139.043 137.045 135.8ZM146.901 135.8C146.901 138.616 146.944 141.133 147.029 143.352C147.114 145.485 147.328 147.32 147.669 148.856C148.096 150.307 148.736 151.459 149.589 152.312C150.528 153.08 151.85 153.464 153.557 153.464C155.178 153.464 156.416 153.08 157.269 152.312C158.208 151.459 158.89 150.307 159.317 148.856C159.744 147.32 159.957 145.485 159.957 143.352C160.042 141.133 160.085 138.616 160.085 135.8V127.096C160.085 123.512 160.042 118.392 159.957 111.736C159.957 104.995 159.914 95.9493 159.829 84.6C159.914 82.3813 159.914 80.248 159.829 78.2C159.744 76.0667 159.488 74.1893 159.061 72.568C158.72 70.8613 158.08 69.496 157.141 68.472C156.288 67.448 155.093 66.936 153.557 66.936C151.85 66.936 150.528 67.5333 149.589 68.728C148.736 69.8373 148.096 71.288 147.669 73.08C147.328 74.7867 147.114 76.7067 147.029 78.84C146.944 80.888 146.901 82.808 146.901 84.6V96.888C146.901 101.069 146.858 106.403 146.773 112.888C146.773 119.288 146.816 126.925 146.901 135.8ZM192.818 66.936L192.946 126.072C192.946 125.389 193.287 124.792 193.97 124.28C194.653 123.768 195.89 123.512 197.682 123.512C199.303 123.512 200.583 123.256 201.522 122.744C202.461 122.232 203.143 120.995 203.57 119.032C204.082 116.984 204.381 113.955 204.466 109.944C204.637 105.933 204.722 100.429 204.722 93.432C204.722 86.52 204.423 81.272 203.826 77.688C203.229 74.104 202.375 71.5013 201.266 69.88C200.242 68.2587 198.962 67.3627 197.426 67.192C195.975 67.0213 194.439 66.936 192.818 66.936ZM192.818 65.4C196.914 65.4 200.37 65.5707 203.186 65.912C206.002 66.168 208.263 67.192 209.97 68.984C211.677 70.6907 212.871 73.464 213.554 77.304C214.237 81.0587 214.578 86.4347 214.578 93.432C214.578 101.197 214.407 107.213 214.066 111.48C213.81 115.747 213.127 118.904 212.018 120.952C210.909 123 209.159 124.237 206.77 124.664C204.466 125.091 201.266 125.304 197.17 125.304C195.634 125.304 194.525 125.731 193.842 126.584C193.245 127.437 192.946 128.717 192.946 130.424V153.464H195.506V155H179.25V153.464H182.45V66.936H179.25V65.4H192.818ZM257.48 65.4V71.672H255.816V66.936H243.144L243.272 153.464H245.832V155H229.576V153.464H232.776V66.936H220.744V71.672H219.08V65.4H257.48Z" fill="#19192D"/>
<defs>
<linearGradient id="paint0_linear_8_135" x1="-0.831886" y1="1.09939" x2="195.326" y2="321.655" gradientUnits="userSpaceOnUse">
<stop offset="0.104167" stop-color="#FFF7E9"/>
<stop offset="0.484375" stop-color="#9D755B"/>
<stop offset="0.906771" stop-color="#19192D"/>
</linearGradient>
</defs>
</svg>
