<svg width="360" height="220" viewBox="0 0 360 220" fill="none" xmlns="http://www.w3.org/2000/svg">
<rect width="360" height="220" rx="30" fill="url(#paint0_linear_8_51)"/>
<path d="M113.012 153.464C115.828 153.464 117.791 153.293 118.9 152.952C120.095 152.611 120.777 152.184 120.948 151.672C121.119 151.075 120.991 150.392 120.564 149.624C120.223 148.856 119.924 148.088 119.668 147.32C119.412 146.467 119.369 145.613 119.54 144.76C119.711 143.821 120.521 142.925 121.972 142.072C123.167 141.389 124.276 141.219 125.3 141.56C126.409 141.901 127.22 142.541 127.732 143.48C128.329 144.419 128.585 145.571 128.5 146.936C128.415 148.216 127.817 149.453 126.708 150.648C125.684 151.843 124.063 152.867 121.844 153.72C119.625 154.573 116.681 155 113.012 155C108.916 155 105.716 154.616 103.412 153.848C101.193 152.995 99.572 151.757 98.548 150.136C97.524 148.515 96.9267 146.552 96.756 144.248C96.5853 141.859 96.5 139.043 96.5 135.8C96.4147 125.56 96.4147 117.155 96.5 110.584C96.5 104.013 96.5 98.808 96.5 94.968V84.6C96.5 82.552 96.5853 80.4187 96.756 78.2C96.9267 75.896 97.524 73.8053 98.548 71.928C99.572 70.0507 101.193 68.5147 103.412 67.32C105.631 66.04 108.788 65.4 112.884 65.4C116.553 65.4 119.497 65.8267 121.716 66.68C123.935 67.5333 125.556 68.5573 126.58 69.752C127.689 70.9467 128.287 72.2267 128.372 73.592C128.457 74.872 128.201 75.9813 127.604 76.92C127.092 77.8587 126.281 78.5413 125.172 78.968C124.148 79.3093 123.039 79.096 121.844 78.328C120.393 77.4747 119.583 76.6213 119.412 75.768C119.241 74.8293 119.284 73.976 119.54 73.208C119.796 72.3547 120.095 71.544 120.436 70.776C120.863 70.008 120.991 69.368 120.82 68.856C120.649 68.2587 119.967 67.7893 118.772 67.448C117.663 67.1067 115.7 66.936 112.884 66.936C111.177 66.936 109.897 67.5333 109.044 68.728C108.191 69.8373 107.551 71.288 107.124 73.08C106.697 74.7867 106.441 76.7067 106.356 78.84C106.356 80.888 106.356 82.808 106.356 84.6V96.888C106.356 101.069 106.313 106.403 106.228 112.888C106.228 119.288 106.271 126.925 106.356 135.8C106.356 138.616 106.399 141.133 106.484 143.352C106.569 145.485 106.783 147.32 107.124 148.856C107.551 150.307 108.191 151.459 109.044 152.312C109.983 153.08 111.305 153.464 113.012 153.464ZM170.605 65.4V71.672H168.941V66.936H156.269L156.397 153.464H158.957V155H142.701V153.464H145.901V66.936H133.869V71.672H132.205V65.4H170.605ZM207.113 65.4V71.032H205.449V66.936H189.193L189.321 108.792C189.321 107.939 189.662 107.299 190.345 106.872C191.028 106.36 192.265 106.104 194.057 106.104H200.201V103.416H201.865V110.2H200.201V107.768H193.545C192.009 107.768 190.9 108.195 190.217 109.048C189.62 109.901 189.321 111.181 189.321 112.888V153.464H205.449V149.368H207.113V155H175.625V153.464H178.825V66.936H175.625V65.4H207.113ZM241.127 79.224C241.724 75.64 242.62 72.824 243.815 70.776C245.095 68.728 246.418 67.2773 247.783 66.424C249.234 65.5707 250.642 65.2293 252.007 65.4C253.372 65.5707 254.482 66.04 255.335 66.808C256.188 67.4907 256.7 68.4293 256.871 69.624C257.127 70.7333 256.786 71.8427 255.847 72.952C254.738 74.1467 253.714 74.7867 252.775 74.872C251.922 74.872 251.068 74.6587 250.215 74.232C249.447 73.8053 248.722 73.336 248.039 72.824C247.356 72.2267 246.716 71.9707 246.119 72.056C245.522 72.1413 244.967 72.7387 244.455 73.848C243.943 74.9573 243.431 76.8773 242.919 79.608C241.98 83.96 241.468 87.8 241.383 91.128C241.298 94.456 241.042 97.2293 240.615 99.448C240.188 101.667 239.292 103.331 237.927 104.44C236.647 105.549 234.386 106.104 231.143 106.104C235.068 106.104 238.311 106.573 240.871 107.512C243.516 108.365 245.607 109.731 247.143 111.608C248.764 113.4 249.874 115.704 250.471 118.52C251.154 121.251 251.495 124.451 251.495 128.12C251.58 132.216 251.623 135.843 251.623 139C251.623 142.157 251.751 144.803 252.007 146.936C252.348 148.984 252.903 150.563 253.671 151.672C254.439 152.781 255.676 153.336 257.383 153.336V155C253.287 155 250.13 154.403 247.911 153.208C245.692 152.013 244.071 150.264 243.047 147.96C242.023 145.656 241.426 142.84 241.255 139.512C241.17 136.184 241.127 132.387 241.127 128.12C241.127 123 240.658 119.117 239.719 116.472C238.78 113.741 237.628 111.779 236.263 110.584C234.898 109.389 233.447 108.749 231.911 108.664C230.375 108.493 229.052 108.408 227.943 108.408L228.071 153.464H230.631V155H214.375V153.464H217.575V66.936H214.375V65.4H230.631V66.936H227.943V105.08C231.612 105.08 234.172 104.696 235.623 103.928C237.074 103.075 238.012 101.667 238.439 99.704C238.951 97.656 239.25 95.0107 239.335 91.768C239.506 88.44 240.103 84.2587 241.127 79.224Z" fill="#19192D"/>
<defs>
<linearGradient id="paint0_linear_8_51" x1="-0.831886" y1="1.09939" x2="195.326" y2="321.655" gradientUnits="userSpaceOnUse">
<stop offset="0.0897024" stop-color="#FFF7E9"/>
<stop offset="0.500053" stop-color="#F4CF89"/>
<stop offset="0.906771" stop-color="#F46C5C"/>
</linearGradient>
</defs>
</svg>
