<svg width="1000" height="401" viewBox="0 0 1000 401" fill="none" xmlns="http://www.w3.org/2000/svg">
<rect y="0.5" width="1000" height="400" rx="30" fill="url(#paint0_linear_8_116)"/>
<path d="M375.762 245.892C378.71 245.892 380.764 245.713 381.926 245.356C383.176 244.999 383.891 244.552 384.07 244.016C384.248 243.391 384.114 242.676 383.668 241.872C383.31 241.068 382.998 240.264 382.73 239.46C382.462 238.567 382.417 237.673 382.596 236.78C382.774 235.797 383.623 234.859 385.142 233.966C386.392 233.251 387.554 233.073 388.626 233.43C389.787 233.787 390.636 234.457 391.172 235.44C391.797 236.423 392.065 237.629 391.976 239.058C391.886 240.398 391.261 241.693 390.1 242.944C389.028 244.195 387.33 245.267 385.008 246.16C382.685 247.053 379.603 247.5 375.762 247.5C371.474 247.5 368.124 247.098 365.712 246.294C363.389 245.401 361.692 244.105 360.62 242.408C359.548 240.711 358.922 238.656 358.744 236.244C358.565 233.743 358.476 230.795 358.476 227.4C358.386 216.68 358.386 207.881 358.476 201.002C358.476 194.123 358.476 188.674 358.476 184.654V173.8C358.476 171.656 358.565 169.423 358.744 167.1C358.922 164.688 359.548 162.499 360.62 160.534C361.692 158.569 363.389 156.961 365.712 155.71C368.034 154.37 371.34 153.7 375.628 153.7C379.469 153.7 382.551 154.147 384.874 155.04C387.196 155.933 388.894 157.005 389.966 158.256C391.127 159.507 391.752 160.847 391.842 162.276C391.931 163.616 391.663 164.777 391.038 165.76C390.502 166.743 389.653 167.457 388.492 167.904C387.42 168.261 386.258 168.038 385.008 167.234C383.489 166.341 382.64 165.447 382.462 164.554C382.283 163.571 382.328 162.678 382.596 161.874C382.864 160.981 383.176 160.132 383.534 159.328C383.98 158.524 384.114 157.854 383.936 157.318C383.757 156.693 383.042 156.201 381.792 155.844C380.63 155.487 378.576 155.308 375.628 155.308C373.841 155.308 372.501 155.933 371.608 157.184C370.714 158.345 370.044 159.864 369.598 161.74C369.151 163.527 368.883 165.537 368.794 167.77C368.794 169.914 368.794 171.924 368.794 173.8V186.664C368.794 191.041 368.749 196.625 368.66 203.414C368.66 210.114 368.704 218.109 368.794 227.4C368.794 230.348 368.838 232.983 368.928 235.306C369.017 237.539 369.24 239.46 369.598 241.068C370.044 242.587 370.714 243.793 371.608 244.686C372.59 245.49 373.975 245.892 375.762 245.892ZM412.068 155.308L412.202 245.892H414.882V247.5H397.864V245.892H401.214V155.308H397.864V153.7H442.754V155.308H439.94L440.074 245.892H442.754V247.5H425.736V245.892H429.086V155.308H412.068ZM483.568 175.14C483.568 175.14 483.255 175.989 482.63 177.686C482.094 179.294 481.379 181.483 480.486 184.252C479.682 186.932 478.699 190.014 477.538 193.498C476.466 196.982 475.349 200.511 474.188 204.084C471.418 212.571 468.292 222.174 464.808 232.894V245.892H467.488V247.5H450.47V245.892H453.82V155.308H450.47V153.7H467.488V155.308H464.674L464.808 227.668C464.808 227.668 465.076 226.864 465.612 225.256C466.237 223.559 466.996 221.37 467.89 218.69C468.783 215.921 469.766 212.839 470.838 209.444C471.999 205.96 473.16 202.387 474.322 198.724C477.091 190.237 480.173 180.634 483.568 169.914V155.308H480.218V153.7H497.236V155.308H494.422L494.556 245.892H497.236V247.5H480.218V245.892H483.568V175.14ZM522.717 245.892C525.665 245.892 527.719 245.713 528.881 245.356C530.131 244.999 530.846 244.552 531.025 244.016C531.203 243.391 531.069 242.676 530.623 241.872C530.265 241.068 529.953 240.264 529.685 239.46C529.417 238.567 529.372 237.673 529.551 236.78C529.729 235.797 530.578 234.859 532.097 233.966C533.347 233.251 534.509 233.073 535.581 233.43C536.742 233.787 537.591 234.457 538.127 235.44C538.752 236.423 539.02 237.629 538.931 239.058C538.841 240.398 538.216 241.693 537.055 242.944C535.983 244.195 534.285 245.267 531.963 246.16C529.64 247.053 526.558 247.5 522.717 247.5C518.429 247.5 515.079 247.098 512.667 246.294C510.344 245.401 508.647 244.105 507.575 242.408C506.503 240.711 505.877 238.656 505.699 236.244C505.52 233.743 505.431 230.795 505.431 227.4C505.341 216.68 505.341 207.881 505.431 201.002C505.431 194.123 505.431 188.674 505.431 184.654V173.8C505.431 171.656 505.52 169.423 505.699 167.1C505.877 164.688 506.503 162.499 507.575 160.534C508.647 158.569 510.344 156.961 512.667 155.71C514.989 154.37 518.295 153.7 522.583 153.7C526.424 153.7 529.506 154.147 531.829 155.04C534.151 155.933 535.849 157.005 536.921 158.256C538.082 159.507 538.707 160.847 538.797 162.276C538.886 163.616 538.618 164.777 537.993 165.76C537.457 166.743 536.608 167.457 535.447 167.904C534.375 168.261 533.213 168.038 531.963 167.234C530.444 166.341 529.595 165.447 529.417 164.554C529.238 163.571 529.283 162.678 529.551 161.874C529.819 160.981 530.131 160.132 530.489 159.328C530.935 158.524 531.069 157.854 530.891 157.318C530.712 156.693 529.997 156.201 528.747 155.844C527.585 155.487 525.531 155.308 522.583 155.308C520.796 155.308 519.456 155.933 518.563 157.184C517.669 158.345 516.999 159.864 516.553 161.74C516.106 163.527 515.838 165.537 515.749 167.77C515.749 169.914 515.749 171.924 515.749 173.8V186.664C515.749 191.041 515.704 196.625 515.615 203.414C515.615 210.114 515.659 218.109 515.749 227.4C515.749 230.348 515.793 232.983 515.883 235.306C515.972 237.539 516.195 239.46 516.553 241.068C516.999 242.587 517.669 243.793 518.563 244.686C519.545 245.49 520.93 245.892 522.717 245.892ZM546.829 227.4C546.74 216.68 546.695 207.881 546.695 201.002C546.785 194.123 546.829 188.674 546.829 184.654V173.8C546.829 171.656 546.919 169.423 547.097 167.1C547.276 164.688 547.901 162.499 548.973 160.534C550.045 158.569 551.743 156.961 554.065 155.71C556.477 154.37 559.827 153.7 564.115 153.7C568.493 153.7 571.843 154.281 574.165 155.442C576.577 156.514 578.319 157.988 579.391 159.864C580.553 161.651 581.223 163.75 581.401 166.162C581.58 168.574 581.625 171.12 581.535 173.8C581.535 180.589 581.535 186.575 581.535 191.756C581.625 196.848 581.669 201.315 581.669 205.156C581.669 208.908 581.669 212.079 581.669 214.67C581.759 217.261 581.803 219.36 581.803 220.968C581.803 224.809 581.848 226.953 581.937 227.4C581.937 230.795 581.848 233.743 581.669 236.244C581.491 238.745 580.821 240.845 579.659 242.542C578.587 244.15 576.845 245.401 574.433 246.294C572.021 247.098 568.582 247.5 564.115 247.5C559.827 247.5 556.477 247.098 554.065 246.294C551.743 245.401 550.045 244.105 548.973 242.408C547.901 240.711 547.276 238.656 547.097 236.244C546.919 233.743 546.829 230.795 546.829 227.4ZM557.147 227.4C557.147 230.348 557.192 232.983 557.281 235.306C557.371 237.539 557.594 239.46 557.951 241.068C558.398 242.587 559.068 243.793 559.961 244.686C560.944 245.49 562.329 245.892 564.115 245.892C565.813 245.892 567.108 245.49 568.001 244.686C568.984 243.793 569.699 242.587 570.145 241.068C570.592 239.46 570.815 237.539 570.815 235.306C570.905 232.983 570.949 230.348 570.949 227.4V218.288C570.949 214.536 570.905 209.176 570.815 202.208C570.815 195.151 570.771 185.681 570.681 173.8C570.771 171.477 570.771 169.244 570.681 167.1C570.592 164.867 570.324 162.901 569.877 161.204C569.52 159.417 568.85 157.988 567.867 156.916C566.974 155.844 565.723 155.308 564.115 155.308C562.329 155.308 560.944 155.933 559.961 157.184C559.068 158.345 558.398 159.864 557.951 161.74C557.594 163.527 557.371 165.537 557.281 167.77C557.192 169.914 557.147 171.924 557.147 173.8V186.664C557.147 191.041 557.103 196.625 557.013 203.414C557.013 210.114 557.058 218.109 557.147 227.4ZM619.019 168.172C619.644 164.42 620.582 161.472 621.833 159.328C623.173 157.184 624.557 155.665 625.987 154.772C627.505 153.879 628.979 153.521 630.409 153.7C631.838 153.879 632.999 154.37 633.893 155.174C634.786 155.889 635.322 156.871 635.501 158.122C635.769 159.283 635.411 160.445 634.429 161.606C633.267 162.857 632.195 163.527 631.213 163.616C630.319 163.616 629.426 163.393 628.533 162.946C627.729 162.499 626.969 162.008 626.255 161.472C625.54 160.847 624.87 160.579 624.245 160.668C623.619 160.757 623.039 161.383 622.503 162.544C621.967 163.705 621.431 165.715 620.895 168.574C619.912 173.13 619.376 177.15 619.287 180.634C619.197 184.118 618.929 187.021 618.483 189.344C618.036 191.667 617.098 193.409 615.669 194.57C614.329 195.731 611.961 196.312 608.567 196.312C612.676 196.312 616.071 196.803 618.751 197.786C621.52 198.679 623.709 200.109 625.317 202.074C627.014 203.95 628.175 206.362 628.801 209.31C629.515 212.169 629.873 215.519 629.873 219.36C629.962 223.648 630.007 227.445 630.007 230.75C630.007 234.055 630.141 236.825 630.409 239.058C630.766 241.202 631.347 242.855 632.151 244.016C632.955 245.177 634.25 245.758 636.037 245.758V247.5C631.749 247.5 628.443 246.875 626.121 245.624C623.798 244.373 622.101 242.542 621.029 240.13C619.957 237.718 619.331 234.77 619.153 231.286C619.063 227.802 619.019 223.827 619.019 219.36C619.019 214 618.527 209.935 617.545 207.166C616.562 204.307 615.356 202.253 613.927 201.002C612.497 199.751 610.979 199.081 609.371 198.992C607.763 198.813 606.378 198.724 605.217 198.724L605.351 245.892H608.031V247.5H591.013V245.892H594.363V155.308H591.013V153.7H608.031V155.308H605.217V195.24C609.058 195.24 611.738 194.838 613.257 194.034C614.775 193.141 615.758 191.667 616.205 189.612C616.741 187.468 617.053 184.699 617.143 181.304C617.321 177.82 617.947 173.443 619.019 168.172Z" fill="#19192D"/>
<defs>
<linearGradient id="paint0_linear_8_116" x1="1008.19" y1="400.481" x2="679.84" y2="-387.586" gradientUnits="userSpaceOnUse">
<stop offset="0.0532185" stop-color="#F46C5C"/>
<stop offset="1" stop-color="#19192D"/>
</linearGradient>
</defs>
</svg>
