<svg width="400" height="401" viewBox="0 0 400 401" fill="none" xmlns="http://www.w3.org/2000/svg">
<rect y="0.5" width="400" height="400" rx="30" fill="url(#paint0_linear_8_51)"/>
<path d="M130.286 245.892C133.234 245.892 135.289 245.713 136.45 245.356C137.701 244.999 138.415 244.552 138.594 244.016C138.773 243.391 138.639 242.676 138.192 241.872C137.835 241.068 137.522 240.264 137.254 239.46C136.986 238.567 136.941 237.673 137.12 236.78C137.299 235.797 138.147 234.859 139.666 233.966C140.917 233.251 142.078 233.073 143.15 233.43C144.311 233.787 145.16 234.457 145.696 235.44C146.321 236.423 146.589 237.629 146.5 239.058C146.411 240.398 145.785 241.693 144.624 242.944C143.552 244.195 141.855 245.267 139.532 246.16C137.209 247.053 134.127 247.5 130.286 247.5C125.998 247.5 122.648 247.098 120.236 246.294C117.913 245.401 116.216 244.105 115.144 242.408C114.072 240.711 113.447 238.656 113.268 236.244C113.089 233.743 113 230.795 113 227.4C112.911 216.68 112.911 207.881 113 201.002C113 194.123 113 188.674 113 184.654V173.8C113 171.656 113.089 169.423 113.268 167.1C113.447 164.688 114.072 162.499 115.144 160.534C116.216 158.569 117.913 156.961 120.236 155.71C122.559 154.37 125.864 153.7 130.152 153.7C133.993 153.7 137.075 154.147 139.398 155.04C141.721 155.933 143.418 157.005 144.49 158.256C145.651 159.507 146.277 160.847 146.366 162.276C146.455 163.616 146.187 164.777 145.562 165.76C145.026 166.743 144.177 167.457 143.016 167.904C141.944 168.261 140.783 168.038 139.532 167.234C138.013 166.341 137.165 165.447 136.986 164.554C136.807 163.571 136.852 162.678 137.12 161.874C137.388 160.981 137.701 160.132 138.058 159.328C138.505 158.524 138.639 157.854 138.46 157.318C138.281 156.693 137.567 156.201 136.316 155.844C135.155 155.487 133.1 155.308 130.152 155.308C128.365 155.308 127.025 155.933 126.132 157.184C125.239 158.345 124.569 159.864 124.122 161.74C123.675 163.527 123.407 165.537 123.318 167.77C123.318 169.914 123.318 171.924 123.318 173.8V186.664C123.318 191.041 123.273 196.625 123.184 203.414C123.184 210.114 123.229 218.109 123.318 227.4C123.318 230.348 123.363 232.983 123.452 235.306C123.541 237.539 123.765 239.46 124.122 241.068C124.569 242.587 125.239 243.793 126.132 244.686C127.115 245.49 128.499 245.892 130.286 245.892ZM190.579 153.7V160.266H188.837V155.308H175.571L175.705 245.892H178.385V247.5H161.367V245.892H164.717V155.308H152.121V160.266H150.379V153.7H190.579ZM228.798 153.7V159.596H227.056V155.308H210.038L210.172 199.126C210.172 198.233 210.529 197.563 211.244 197.116C211.959 196.58 213.254 196.312 215.13 196.312H221.562V193.498H223.304V200.6H221.562V198.054H214.594C212.986 198.054 211.825 198.501 211.11 199.394C210.485 200.287 210.172 201.627 210.172 203.414V245.892H227.056V241.604H228.798V247.5H195.834V245.892H199.184V155.308H195.834V153.7H228.798ZM264.406 168.172C265.032 164.42 265.97 161.472 267.22 159.328C268.56 157.184 269.945 155.665 271.374 154.772C272.893 153.879 274.367 153.521 275.796 153.7C277.226 153.879 278.387 154.37 279.28 155.174C280.174 155.889 280.71 156.871 280.888 158.122C281.156 159.283 280.799 160.445 279.816 161.606C278.655 162.857 277.583 163.527 276.6 163.616C275.707 163.616 274.814 163.393 273.92 162.946C273.116 162.499 272.357 162.008 271.642 161.472C270.928 160.847 270.258 160.579 269.632 160.668C269.007 160.757 268.426 161.383 267.89 162.544C267.354 163.705 266.818 165.715 266.282 168.574C265.3 173.13 264.764 177.15 264.674 180.634C264.585 184.118 264.317 187.021 263.87 189.344C263.424 191.667 262.486 193.409 261.056 194.57C259.716 195.731 257.349 196.312 253.954 196.312C258.064 196.312 261.458 196.803 264.138 197.786C266.908 198.679 269.096 200.109 270.704 202.074C272.402 203.95 273.563 206.362 274.188 209.31C274.903 212.169 275.26 215.519 275.26 219.36C275.35 223.648 275.394 227.445 275.394 230.75C275.394 234.055 275.528 236.825 275.796 239.058C276.154 241.202 276.734 242.855 277.538 244.016C278.342 245.177 279.638 245.758 281.424 245.758V247.5C277.136 247.5 273.831 246.875 271.508 245.624C269.186 244.373 267.488 242.542 266.416 240.13C265.344 237.718 264.719 234.77 264.54 231.286C264.451 227.802 264.406 223.827 264.406 219.36C264.406 214 263.915 209.935 262.932 207.166C261.95 204.307 260.744 202.253 259.314 201.002C257.885 199.751 256.366 199.081 254.758 198.992C253.15 198.813 251.766 198.724 250.604 198.724L250.738 245.892H253.418V247.5H236.4V245.892H239.75V155.308H236.4V153.7H253.418V155.308H250.604V195.24C254.446 195.24 257.126 194.838 258.644 194.034C260.163 193.141 261.146 191.667 261.592 189.612C262.128 187.468 262.441 184.699 262.53 181.304C262.709 177.82 263.334 173.443 264.406 168.172Z" fill="#19192D"/>
<defs>
<linearGradient id="paint0_linear_8_51" x1="-0.924318" y1="2.4989" x2="399.613" y2="402.499" gradientUnits="userSpaceOnUse">
<stop offset="0.0897024" stop-color="#FFF7E9"/>
<stop offset="0.500053" stop-color="#F4CF89"/>
<stop offset="0.906771" stop-color="#F46C5C"/>
</linearGradient>
</defs>
</svg>
