<svg width="1000" height="401" viewBox="0 0 1000 401" fill="none" xmlns="http://www.w3.org/2000/svg">
<rect y="0.5" width="1000" height="400" rx="30" fill="url(#paint0_linear_8_51)"/>
<path d="M430.286 245.892C433.234 245.892 435.289 245.713 436.45 245.356C437.701 244.999 438.415 244.552 438.594 244.016C438.773 243.391 438.639 242.676 438.192 241.872C437.835 241.068 437.522 240.264 437.254 239.46C436.986 238.567 436.941 237.673 437.12 236.78C437.299 235.797 438.147 234.859 439.666 233.966C440.917 233.251 442.078 233.073 443.15 233.43C444.311 233.787 445.16 234.457 445.696 235.44C446.321 236.423 446.589 237.629 446.5 239.058C446.411 240.398 445.785 241.693 444.624 242.944C443.552 244.195 441.855 245.267 439.532 246.16C437.209 247.053 434.127 247.5 430.286 247.5C425.998 247.5 422.648 247.098 420.236 246.294C417.913 245.401 416.216 244.105 415.144 242.408C414.072 240.711 413.447 238.656 413.268 236.244C413.089 233.743 413 230.795 413 227.4C412.911 216.68 412.911 207.881 413 201.002C413 194.123 413 188.674 413 184.654V173.8C413 171.656 413.089 169.423 413.268 167.1C413.447 164.688 414.072 162.499 415.144 160.534C416.216 158.569 417.913 156.961 420.236 155.71C422.559 154.37 425.864 153.7 430.152 153.7C433.993 153.7 437.075 154.147 439.398 155.04C441.721 155.933 443.418 157.005 444.49 158.256C445.651 159.507 446.277 160.847 446.366 162.276C446.455 163.616 446.187 164.777 445.562 165.76C445.026 166.743 444.177 167.457 443.016 167.904C441.944 168.261 440.783 168.038 439.532 167.234C438.013 166.341 437.165 165.447 436.986 164.554C436.807 163.571 436.852 162.678 437.12 161.874C437.388 160.981 437.701 160.132 438.058 159.328C438.505 158.524 438.639 157.854 438.46 157.318C438.281 156.693 437.567 156.201 436.316 155.844C435.155 155.487 433.1 155.308 430.152 155.308C428.365 155.308 427.025 155.933 426.132 157.184C425.239 158.345 424.569 159.864 424.122 161.74C423.675 163.527 423.407 165.537 423.318 167.77C423.318 169.914 423.318 171.924 423.318 173.8V186.664C423.318 191.041 423.273 196.625 423.184 203.414C423.184 210.114 423.229 218.109 423.318 227.4C423.318 230.348 423.363 232.983 423.452 235.306C423.541 237.539 423.765 239.46 424.122 241.068C424.569 242.587 425.239 243.793 426.132 244.686C427.115 245.49 428.499 245.892 430.286 245.892ZM490.579 153.7V160.266H488.837V155.308H475.571L475.705 245.892H478.385V247.5H461.367V245.892H464.717V155.308H452.121V160.266H450.379V153.7H490.579ZM528.798 153.7V159.596H527.056V155.308H510.038L510.172 199.126C510.172 198.233 510.529 197.563 511.244 197.116C511.959 196.58 513.254 196.312 515.13 196.312H521.562V193.498H523.304V200.6H521.562V198.054H514.594C512.986 198.054 511.825 198.501 511.11 199.394C510.485 200.287 510.172 201.627 510.172 203.414V245.892H527.056V241.604H528.798V247.5H495.834V245.892H499.184V155.308H495.834V153.7H528.798ZM564.406 168.172C565.032 164.42 565.97 161.472 567.22 159.328C568.56 157.184 569.945 155.665 571.374 154.772C572.893 153.879 574.367 153.521 575.796 153.7C577.226 153.879 578.387 154.37 579.28 155.174C580.174 155.889 580.71 156.871 580.888 158.122C581.156 159.283 580.799 160.445 579.816 161.606C578.655 162.857 577.583 163.527 576.6 163.616C575.707 163.616 574.814 163.393 573.92 162.946C573.116 162.499 572.357 162.008 571.642 161.472C570.928 160.847 570.258 160.579 569.632 160.668C569.007 160.757 568.426 161.383 567.89 162.544C567.354 163.705 566.818 165.715 566.282 168.574C565.3 173.13 564.764 177.15 564.674 180.634C564.585 184.118 564.317 187.021 563.87 189.344C563.424 191.667 562.486 193.409 561.056 194.57C559.716 195.731 557.349 196.312 553.954 196.312C558.064 196.312 561.458 196.803 564.138 197.786C566.908 198.679 569.096 200.109 570.704 202.074C572.402 203.95 573.563 206.362 574.188 209.31C574.903 212.169 575.26 215.519 575.26 219.36C575.35 223.648 575.394 227.445 575.394 230.75C575.394 234.055 575.528 236.825 575.796 239.058C576.154 241.202 576.734 242.855 577.538 244.016C578.342 245.177 579.638 245.758 581.424 245.758V247.5C577.136 247.5 573.831 246.875 571.508 245.624C569.186 244.373 567.488 242.542 566.416 240.13C565.344 237.718 564.719 234.77 564.54 231.286C564.451 227.802 564.406 223.827 564.406 219.36C564.406 214 563.915 209.935 562.932 207.166C561.95 204.307 560.744 202.253 559.314 201.002C557.885 199.751 556.366 199.081 554.758 198.992C553.15 198.813 551.766 198.724 550.604 198.724L550.738 245.892H553.418V247.5H536.4V245.892H539.75V155.308H536.4V153.7H553.418V155.308H550.604V195.24C554.446 195.24 557.126 194.838 558.644 194.034C560.163 193.141 561.146 191.667 561.592 189.612C562.128 187.468 562.441 184.699 562.53 181.304C562.709 177.82 563.334 173.443 564.406 168.172Z" fill="#19192D"/>
<defs>
<linearGradient id="paint0_linear_8_51" x1="-2.31079" y1="2.4989" x2="274.191" y2="692.825" gradientUnits="userSpaceOnUse">
<stop offset="0.0897024" stop-color="#FFF7E9"/>
<stop offset="0.500053" stop-color="#F4CF89"/>
<stop offset="0.906771" stop-color="#F46C5C"/>
</linearGradient>
</defs>
</svg>
