<svg width="360" height="220" viewBox="0 0 360 220" fill="none" xmlns="http://www.w3.org/2000/svg">
<rect width="360" height="220" rx="30" fill="url(#paint0_linear_8_116)"/>
<path d="M61.3245 153.464C64.1405 153.464 66.1032 153.293 67.2125 152.952C68.4072 152.611 69.0898 152.184 69.2605 151.672C69.4312 151.075 69.3032 150.392 68.8765 149.624C68.5352 148.856 68.2365 148.088 67.9805 147.32C67.7245 146.467 67.6818 145.613 67.8525 144.76C68.0232 143.821 68.8338 142.925 70.2845 142.072C71.4792 141.389 72.5885 141.219 73.6125 141.56C74.7218 141.901 75.5325 142.541 76.0445 143.48C76.6418 144.419 76.8978 145.571 76.8125 146.936C76.7272 148.216 76.1298 149.453 75.0205 150.648C73.9965 151.843 72.3752 152.867 70.1565 153.72C67.9378 154.573 64.9938 155 61.3245 155C57.2285 155 54.0285 154.616 51.7245 153.848C49.5058 152.995 47.8845 151.757 46.8605 150.136C45.8365 148.515 45.2392 146.552 45.0685 144.248C44.8978 141.859 44.8125 139.043 44.8125 135.8C44.7272 125.56 44.7272 117.155 44.8125 110.584C44.8125 104.013 44.8125 98.808 44.8125 94.968V84.6C44.8125 82.552 44.8978 80.4187 45.0685 78.2C45.2392 75.896 45.8365 73.8053 46.8605 71.928C47.8845 70.0507 49.5058 68.5147 51.7245 67.32C53.9432 66.04 57.1005 65.4 61.1965 65.4C64.8658 65.4 67.8098 65.8267 70.0285 66.68C72.2472 67.5333 73.8685 68.5573 74.8925 69.752C76.0018 70.9467 76.5992 72.2267 76.6845 73.592C76.7698 74.872 76.5138 75.9813 75.9165 76.92C75.4045 77.8587 74.5938 78.5413 73.4845 78.968C72.4605 79.3093 71.3512 79.096 70.1565 78.328C68.7058 77.4747 67.8952 76.6213 67.7245 75.768C67.5538 74.8293 67.5965 73.976 67.8525 73.208C68.1085 72.3547 68.4072 71.544 68.7485 70.776C69.1752 70.008 69.3032 69.368 69.1325 68.856C68.9618 68.2587 68.2792 67.7893 67.0845 67.448C65.9752 67.1067 64.0125 66.936 61.1965 66.936C59.4898 66.936 58.2098 67.5333 57.3565 68.728C56.5032 69.8373 55.8632 71.288 55.4365 73.08C55.0098 74.7867 54.7538 76.7067 54.6685 78.84C54.6685 80.888 54.6685 82.808 54.6685 84.6V96.888C54.6685 101.069 54.6258 106.403 54.5405 112.888C54.5405 119.288 54.5832 126.925 54.6685 135.8C54.6685 138.616 54.7112 141.133 54.7965 143.352C54.8818 145.485 55.0952 147.32 55.4365 148.856C55.8632 150.307 56.5032 151.459 57.3565 152.312C58.2952 153.08 59.6178 153.464 61.3245 153.464ZM96.0055 66.936L96.1335 153.464H98.6935V155H82.4375V153.464H85.6375V66.936H82.4375V65.4H125.318V66.936H122.63L122.758 153.464H125.318V155H109.062V153.464H112.262V66.936H96.0055ZM164.304 85.88C164.304 85.88 164.005 86.6907 163.408 88.312C162.896 89.848 162.213 91.9387 161.36 94.584C160.592 97.144 159.653 100.088 158.544 103.416C157.52 106.744 156.453 110.115 155.344 113.528C152.698 121.635 149.712 130.808 146.384 141.048V153.464H148.944V155H132.688V153.464H135.888V66.936H132.688V65.4H148.944V66.936H146.256L146.384 136.056C146.384 136.056 146.64 135.288 147.152 133.752C147.749 132.131 148.474 130.04 149.328 127.48C150.181 124.835 151.12 121.891 152.144 118.648C153.253 115.32 154.362 111.907 155.472 108.408C158.117 100.301 161.061 91.128 164.304 80.888V66.936H161.104V65.4H177.36V66.936H174.672L174.8 153.464H177.36V155H161.104V153.464H164.304V85.88ZM201.7 153.464C204.516 153.464 206.478 153.293 207.588 152.952C208.782 152.611 209.465 152.184 209.636 151.672C209.806 151.075 209.678 150.392 209.252 149.624C208.91 148.856 208.612 148.088 208.356 147.32C208.1 146.467 208.057 145.613 208.228 144.76C208.398 143.821 209.209 142.925 210.66 142.072C211.854 141.389 212.964 141.219 213.988 141.56C215.097 141.901 215.908 142.541 216.42 143.48C217.017 144.419 217.273 145.571 217.188 146.936C217.102 148.216 216.505 149.453 215.396 150.648C214.372 151.843 212.75 152.867 210.532 153.72C208.313 154.573 205.369 155 201.7 155C197.604 155 194.404 154.616 192.1 153.848C189.881 152.995 188.26 151.757 187.236 150.136C186.212 148.515 185.614 146.552 185.444 144.248C185.273 141.859 185.188 139.043 185.188 135.8C185.102 125.56 185.102 117.155 185.188 110.584C185.188 104.013 185.188 98.808 185.188 94.968V84.6C185.188 82.552 185.273 80.4187 185.444 78.2C185.614 75.896 186.212 73.8053 187.236 71.928C188.26 70.0507 189.881 68.5147 192.1 67.32C194.318 66.04 197.476 65.4 201.572 65.4C205.241 65.4 208.185 65.8267 210.404 66.68C212.622 67.5333 214.244 68.5573 215.268 69.752C216.377 70.9467 216.974 72.2267 217.06 73.592C217.145 74.872 216.889 75.9813 216.292 76.92C215.78 77.8587 214.969 78.5413 213.86 78.968C212.836 79.3093 211.726 79.096 210.532 78.328C209.081 77.4747 208.27 76.6213 208.1 75.768C207.929 74.8293 207.972 73.976 208.228 73.208C208.484 72.3547 208.782 71.544 209.124 70.776C209.55 70.008 209.678 69.368 209.508 68.856C209.337 68.2587 208.654 67.7893 207.46 67.448C206.35 67.1067 204.388 66.936 201.572 66.936C199.865 66.936 198.585 67.5333 197.732 68.728C196.878 69.8373 196.238 71.288 195.812 73.08C195.385 74.7867 195.129 76.7067 195.044 78.84C195.044 80.888 195.044 82.808 195.044 84.6V96.888C195.044 101.069 195.001 106.403 194.916 112.888C194.916 119.288 194.958 126.925 195.044 135.8C195.044 138.616 195.086 141.133 195.172 143.352C195.257 145.485 195.47 147.32 195.812 148.856C196.238 150.307 196.878 151.459 197.732 152.312C198.67 153.08 199.993 153.464 201.7 153.464ZM224.733 135.8C224.647 125.56 224.605 117.155 224.605 110.584C224.69 104.013 224.733 98.808 224.733 94.968V84.6C224.733 82.552 224.818 80.4187 224.989 78.2C225.159 75.896 225.757 73.8053 226.781 71.928C227.805 70.0507 229.426 68.5147 231.645 67.32C233.949 66.04 237.149 65.4 241.245 65.4C245.426 65.4 248.626 65.9547 250.845 67.064C253.149 68.088 254.813 69.496 255.837 71.288C256.946 72.9947 257.586 75 257.757 77.304C257.927 79.608 257.97 82.04 257.885 84.6C257.885 91.0853 257.885 96.8027 257.885 101.752C257.97 106.616 258.013 110.883 258.013 114.552C258.013 118.136 258.013 121.165 258.013 123.64C258.098 126.115 258.141 128.12 258.141 129.656C258.141 133.325 258.183 135.373 258.269 135.8C258.269 139.043 258.183 141.859 258.013 144.248C257.842 146.637 257.202 148.643 256.093 150.264C255.069 151.8 253.405 152.995 251.101 153.848C248.797 154.616 245.511 155 241.245 155C237.149 155 233.949 154.616 231.645 153.848C229.426 152.995 227.805 151.757 226.781 150.136C225.757 148.515 225.159 146.552 224.989 144.248C224.818 141.859 224.733 139.043 224.733 135.8ZM234.589 135.8C234.589 138.616 234.631 141.133 234.717 143.352C234.802 145.485 235.015 147.32 235.357 148.856C235.783 150.307 236.423 151.459 237.277 152.312C238.215 153.08 239.538 153.464 241.245 153.464C242.866 153.464 244.103 153.08 244.957 152.312C245.895 151.459 246.578 150.307 247.005 148.856C247.431 147.32 247.645 145.485 247.645 143.352C247.73 141.133 247.773 138.616 247.773 135.8V127.096C247.773 123.512 247.73 118.392 247.645 111.736C247.645 104.995 247.602 95.9493 247.517 84.6C247.602 82.3813 247.602 80.248 247.517 78.2C247.431 76.0667 247.175 74.1893 246.749 72.568C246.407 70.8613 245.767 69.496 244.829 68.472C243.975 67.448 242.781 66.936 241.245 66.936C239.538 66.936 238.215 67.5333 237.277 68.728C236.423 69.8373 235.783 71.288 235.357 73.08C235.015 74.7867 234.802 76.7067 234.717 78.84C234.631 80.888 234.589 82.808 234.589 84.6V96.888C234.589 101.069 234.546 106.403 234.461 112.888C234.461 119.288 234.503 126.925 234.589 135.8ZM293.69 79.224C294.287 75.64 295.183 72.824 296.378 70.776C297.658 68.728 298.98 67.2773 300.346 66.424C301.796 65.5707 303.204 65.2293 304.569 65.4C305.935 65.5707 307.044 66.04 307.898 66.808C308.751 67.4907 309.263 68.4293 309.434 69.624C309.69 70.7333 309.348 71.8427 308.41 72.952C307.3 74.1467 306.276 74.7867 305.338 74.872C304.484 74.872 303.631 74.6587 302.778 74.232C302.01 73.8053 301.284 73.336 300.602 72.824C299.919 72.2267 299.279 71.9707 298.682 72.056C298.084 72.1413 297.53 72.7387 297.018 73.848C296.506 74.9573 295.994 76.8773 295.482 79.608C294.543 83.96 294.031 87.8 293.946 91.128C293.86 94.456 293.604 97.2293 293.178 99.448C292.751 101.667 291.855 103.331 290.49 104.44C289.21 105.549 286.948 106.104 283.706 106.104C287.631 106.104 290.874 106.573 293.434 107.512C296.079 108.365 298.17 109.731 299.706 111.608C301.327 113.4 302.436 115.704 303.034 118.52C303.716 121.251 304.058 124.451 304.058 128.12C304.143 132.216 304.186 135.843 304.186 139C304.186 142.157 304.314 144.803 304.569 146.936C304.911 148.984 305.466 150.563 306.234 151.672C307.002 152.781 308.239 153.336 309.946 153.336V155C305.85 155 302.692 154.403 300.474 153.208C298.255 152.013 296.634 150.264 295.61 147.96C294.586 145.656 293.988 142.84 293.818 139.512C293.732 136.184 293.69 132.387 293.69 128.12C293.69 123 293.22 119.117 292.282 116.472C291.343 113.741 290.191 111.779 288.826 110.584C287.46 109.389 286.01 108.749 284.474 108.664C282.938 108.493 281.615 108.408 280.506 108.408L280.634 153.464H283.194V155H266.938V153.464H270.138V66.936H266.938V65.4H283.194V66.936H280.506V105.08C284.175 105.08 286.735 104.696 288.186 103.928C289.636 103.075 290.575 101.667 291.002 99.704C291.514 97.656 291.812 95.0107 291.898 91.768C292.068 88.44 292.666 84.2587 293.69 79.224Z" fill="#19192D"/>
<defs>
<linearGradient id="paint0_linear_8_116" x1="-0.831886" y1="1.09939" x2="195.326" y2="321.655" gradientUnits="userSpaceOnUse">
<stop offset="0.0897024" stop-color="#F4CF89"/>
<stop offset="0.500053" stop-color="#245559"/>
<stop offset="0.906771" stop-color="#19192D"/>
</linearGradient>
</defs>
</svg>
