<svg width="400" height="401" viewBox="0 0 400 401" fill="none" xmlns="http://www.w3.org/2000/svg">
<rect y="0.5" width="400" height="400" rx="30" fill="url(#paint0_linear_8_97)"/>
<path d="M38.01 227.4C37.9207 216.68 37.876 207.881 37.876 201.002C37.9653 194.123 38.01 188.674 38.01 184.654V173.8C38.01 171.656 38.0993 169.423 38.278 167.1C38.4567 164.688 39.082 162.499 40.154 160.534C41.226 158.569 42.9233 156.961 45.246 155.71C47.658 154.37 51.008 153.7 55.296 153.7C59.6733 153.7 63.0233 154.281 65.346 155.442C67.758 156.514 69.5 157.988 70.572 159.864C71.7333 161.651 72.4033 163.75 72.582 166.162C72.7607 168.574 72.8053 171.12 72.716 173.8C72.716 180.589 72.716 186.575 72.716 191.756C72.8053 196.848 72.85 201.315 72.85 205.156C72.85 208.908 72.85 212.079 72.85 214.67C72.9393 217.261 72.984 219.36 72.984 220.968C72.984 224.809 73.0287 226.953 73.118 227.4C73.118 230.795 73.0287 233.743 72.85 236.244C72.6713 238.745 72.0013 240.845 70.84 242.542C69.768 244.15 68.026 245.401 65.614 246.294C63.202 247.098 59.7627 247.5 55.296 247.5C51.008 247.5 47.658 247.098 45.246 246.294C42.9233 245.401 41.226 244.105 40.154 242.408C39.082 240.711 38.4567 238.656 38.278 236.244C38.0993 233.743 38.01 230.795 38.01 227.4ZM48.328 227.4C48.328 230.348 48.3727 232.983 48.462 235.306C48.5513 237.539 48.7747 239.46 49.132 241.068C49.5787 242.587 50.2487 243.793 51.142 244.686C52.1247 245.49 53.5093 245.892 55.296 245.892C56.9933 245.892 58.2887 245.49 59.182 244.686C60.1647 243.793 60.8793 242.587 61.326 241.068C61.7727 239.46 61.996 237.539 61.996 235.306C62.0853 232.983 62.13 230.348 62.13 227.4V218.288C62.13 214.536 62.0853 209.176 61.996 202.208C61.996 195.151 61.9513 185.681 61.862 173.8C61.9513 171.477 61.9513 169.244 61.862 167.1C61.7727 164.867 61.5047 162.901 61.058 161.204C60.7007 159.417 60.0307 157.988 59.048 156.916C58.1547 155.844 56.904 155.308 55.296 155.308C53.5093 155.308 52.1247 155.933 51.142 157.184C50.2487 158.345 49.5787 159.864 49.132 161.74C48.7747 163.527 48.5513 165.537 48.462 167.77C48.3727 169.914 48.328 171.924 48.328 173.8V186.664C48.328 191.041 48.2833 196.625 48.194 203.414C48.194 210.114 48.2387 218.109 48.328 227.4ZM115.425 209.176C113.103 211.856 110.244 213.553 106.849 214.268C103.455 214.983 100.149 214.759 96.9334 213.598C93.8067 212.347 91.1267 210.159 88.8934 207.032C86.66 203.816 85.5434 199.662 85.5434 194.57V155.308H82.1934V153.7H99.2114V155.308H96.3974V194.57C96.3974 199.751 96.9334 203.727 98.0054 206.496C99.1667 209.265 100.641 211.052 102.427 211.856C104.303 212.66 106.358 212.571 108.591 211.588C110.914 210.605 113.192 208.953 115.425 206.63V155.308H112.075V153.7H129.093V155.308H126.279L126.413 245.892H129.093V247.5H112.075V245.892H115.425V209.176ZM170.38 153.7V159.596H168.638V155.308H151.62L151.754 199.126C151.754 198.233 152.111 197.563 152.826 197.116C153.541 196.58 154.836 196.312 156.712 196.312H163.144V193.498H164.886V200.6H163.144V198.054H156.176C154.568 198.054 153.407 198.501 152.692 199.394C152.067 200.287 151.754 201.627 151.754 203.414V245.892H168.638V241.604H170.38V247.5H137.416V245.892H140.766V155.308H137.416V153.7H170.38ZM192.186 155.308L192.32 217.216C192.32 216.501 192.678 215.876 193.392 215.34C194.107 214.804 195.402 214.536 197.278 214.536C198.976 214.536 200.316 214.268 201.298 213.732C202.281 213.196 202.996 211.901 203.442 209.846C203.978 207.702 204.291 204.531 204.38 200.332C204.559 196.133 204.648 190.371 204.648 183.046C204.648 175.81 204.336 170.316 203.71 166.564C203.085 162.812 202.192 160.087 201.03 158.39C199.958 156.693 198.618 155.755 197.01 155.576C195.492 155.397 193.884 155.308 192.186 155.308ZM192.186 153.7C196.474 153.7 200.092 153.879 203.04 154.236C205.988 154.504 208.356 155.576 210.142 157.452C211.929 159.239 213.18 162.142 213.894 166.162C214.609 170.093 214.966 175.721 214.966 183.046C214.966 191.175 214.788 197.473 214.43 201.94C214.162 206.407 213.448 209.712 212.286 211.856C211.125 214 209.294 215.295 206.792 215.742C204.38 216.189 201.03 216.412 196.742 216.412C195.134 216.412 193.973 216.859 193.258 217.752C192.633 218.645 192.32 219.985 192.32 221.772V245.892H195V247.5H177.982V245.892H181.332V155.308H177.982V153.7H192.186ZM254.653 153.7V159.596H252.911V155.308H235.893L236.027 199.126C236.027 198.233 236.385 197.563 237.099 197.116C237.814 196.58 239.109 196.312 240.985 196.312H247.417V193.498H249.159V200.6H247.417V198.054H240.449C238.841 198.054 237.68 198.501 236.965 199.394C236.34 200.287 236.027 201.627 236.027 203.414V245.892H252.911V241.604H254.653V247.5H221.689V245.892H225.039V155.308H221.689V153.7H254.653ZM300.446 153.7C300.446 153.7 300.446 155.04 300.446 157.72C300.446 160.311 300.446 163.75 300.446 168.038C300.446 172.326 300.446 177.239 300.446 182.778C300.446 188.227 300.446 193.811 300.446 199.528C300.535 205.245 300.58 210.873 300.58 216.412C300.58 221.861 300.58 226.775 300.58 231.152C300.58 235.44 300.58 238.969 300.58 241.738C300.58 244.418 300.58 245.803 300.58 245.892H308.084V253.128H306.476V247.5H258.102V253.128H256.494V245.892H262.926C265.07 241.961 266.991 237.227 268.688 231.688C270.207 227.043 271.547 221.325 272.708 214.536C273.959 207.657 274.584 199.751 274.584 190.818V153.7H300.446ZM276.46 155.308V190.684C276.46 199.617 275.835 207.523 274.584 214.402C273.423 221.191 272.127 226.953 270.698 231.688C269.001 237.227 267.08 241.961 264.936 245.892H289.592V155.308H276.46ZM332.384 245.758C334.081 245.758 335.689 245.669 337.208 245.49C338.816 245.311 340.156 244.418 341.228 242.81C342.389 241.113 343.283 238.388 343.908 234.636C344.533 230.884 344.846 225.39 344.846 218.154C344.846 210.829 344.757 205.067 344.578 200.868C344.489 196.669 344.176 193.543 343.64 191.488C343.193 189.344 342.479 188.004 341.496 187.468C340.513 186.932 339.173 186.664 337.476 186.664C335.6 186.664 334.305 186.441 333.59 185.994C332.875 185.458 332.518 184.833 332.518 184.118L332.384 245.758ZM318.18 247.5V245.758H321.53V155.308H318.18V153.7H335.6V155.308H332.518V179.428C332.518 181.215 332.831 182.555 333.456 183.448C334.171 184.341 335.332 184.788 336.94 184.788C341.228 184.788 344.578 185.011 346.99 185.458C349.491 185.905 351.323 187.2 352.484 189.344C353.645 191.488 354.36 194.793 354.628 199.26C354.985 203.727 355.164 210.025 355.164 218.154C355.164 225.479 354.807 231.152 354.092 235.172C353.377 239.103 352.127 242.006 350.34 243.882C348.553 245.669 346.186 246.741 343.238 247.098C340.29 247.366 336.672 247.5 332.384 247.5H318.18Z" fill="#19192D"/>
<defs>
<linearGradient id="paint0_linear_8_97" x1="-0.924318" y1="2.4989" x2="399.613" y2="402.499" gradientUnits="userSpaceOnUse">
<stop offset="0.161458" stop-color="#FFF7E9"/>
<stop offset="0.612136" stop-color="#F46C5C" stop-opacity="0.86"/>
<stop offset="0.869792" stop-color="#19192D"/>
</linearGradient>
</defs>
</svg>
