<svg width="1000" height="401" viewBox="0 0 1000 401" fill="none" xmlns="http://www.w3.org/2000/svg">
<rect y="0.5" width="1000" height="400" rx="30" fill="url(#paint0_linear_8_97)"/>
<path d="M338.01 227.4C337.921 216.68 337.876 207.881 337.876 201.002C337.965 194.123 338.01 188.674 338.01 184.654V173.8C338.01 171.656 338.099 169.423 338.278 167.1C338.457 164.688 339.082 162.499 340.154 160.534C341.226 158.569 342.923 156.961 345.246 155.71C347.658 154.37 351.008 153.7 355.296 153.7C359.673 153.7 363.023 154.281 365.346 155.442C367.758 156.514 369.5 157.988 370.572 159.864C371.733 161.651 372.403 163.75 372.582 166.162C372.761 168.574 372.805 171.12 372.716 173.8C372.716 180.589 372.716 186.575 372.716 191.756C372.805 196.848 372.85 201.315 372.85 205.156C372.85 208.908 372.85 212.079 372.85 214.67C372.939 217.261 372.984 219.36 372.984 220.968C372.984 224.809 373.029 226.953 373.118 227.4C373.118 230.795 373.029 233.743 372.85 236.244C372.671 238.745 372.001 240.845 370.84 242.542C369.768 244.15 368.026 245.401 365.614 246.294C363.202 247.098 359.763 247.5 355.296 247.5C351.008 247.5 347.658 247.098 345.246 246.294C342.923 245.401 341.226 244.105 340.154 242.408C339.082 240.711 338.457 238.656 338.278 236.244C338.099 233.743 338.01 230.795 338.01 227.4ZM348.328 227.4C348.328 230.348 348.373 232.983 348.462 235.306C348.551 237.539 348.775 239.46 349.132 241.068C349.579 242.587 350.249 243.793 351.142 244.686C352.125 245.49 353.509 245.892 355.296 245.892C356.993 245.892 358.289 245.49 359.182 244.686C360.165 243.793 360.879 242.587 361.326 241.068C361.773 239.46 361.996 237.539 361.996 235.306C362.085 232.983 362.13 230.348 362.13 227.4V218.288C362.13 214.536 362.085 209.176 361.996 202.208C361.996 195.151 361.951 185.681 361.862 173.8C361.951 171.477 361.951 169.244 361.862 167.1C361.773 164.867 361.505 162.901 361.058 161.204C360.701 159.417 360.031 157.988 359.048 156.916C358.155 155.844 356.904 155.308 355.296 155.308C353.509 155.308 352.125 155.933 351.142 157.184C350.249 158.345 349.579 159.864 349.132 161.74C348.775 163.527 348.551 165.537 348.462 167.77C348.373 169.914 348.328 171.924 348.328 173.8V186.664C348.328 191.041 348.283 196.625 348.194 203.414C348.194 210.114 348.239 218.109 348.328 227.4ZM415.425 209.176C413.103 211.856 410.244 213.553 406.849 214.268C403.455 214.983 400.149 214.759 396.933 213.598C393.807 212.347 391.127 210.159 388.893 207.032C386.66 203.816 385.543 199.662 385.543 194.57V155.308H382.193V153.7H399.211V155.308H396.397V194.57C396.397 199.751 396.933 203.727 398.005 206.496C399.167 209.265 400.641 211.052 402.427 211.856C404.303 212.66 406.358 212.571 408.591 211.588C410.914 210.605 413.192 208.953 415.425 206.63V155.308H412.075V153.7H429.093V155.308H426.279L426.413 245.892H429.093V247.5H412.075V245.892H415.425V209.176ZM470.38 153.7V159.596H468.638V155.308H451.62L451.754 199.126C451.754 198.233 452.111 197.563 452.826 197.116C453.541 196.58 454.836 196.312 456.712 196.312H463.144V193.498H464.886V200.6H463.144V198.054H456.176C454.568 198.054 453.407 198.501 452.692 199.394C452.067 200.287 451.754 201.627 451.754 203.414V245.892H468.638V241.604H470.38V247.5H437.416V245.892H440.766V155.308H437.416V153.7H470.38ZM492.186 155.308L492.32 217.216C492.32 216.501 492.678 215.876 493.392 215.34C494.107 214.804 495.402 214.536 497.278 214.536C498.976 214.536 500.316 214.268 501.298 213.732C502.281 213.196 502.996 211.901 503.442 209.846C503.978 207.702 504.291 204.531 504.38 200.332C504.559 196.133 504.648 190.371 504.648 183.046C504.648 175.81 504.336 170.316 503.71 166.564C503.085 162.812 502.192 160.087 501.03 158.39C499.958 156.693 498.618 155.755 497.01 155.576C495.492 155.397 493.884 155.308 492.186 155.308ZM492.186 153.7C496.474 153.7 500.092 153.879 503.04 154.236C505.988 154.504 508.356 155.576 510.142 157.452C511.929 159.239 513.18 162.142 513.894 166.162C514.609 170.093 514.966 175.721 514.966 183.046C514.966 191.175 514.788 197.473 514.43 201.94C514.162 206.407 513.448 209.712 512.286 211.856C511.125 214 509.294 215.295 506.792 215.742C504.38 216.189 501.03 216.412 496.742 216.412C495.134 216.412 493.973 216.859 493.258 217.752C492.633 218.645 492.32 219.985 492.32 221.772V245.892H495V247.5H477.982V245.892H481.332V155.308H477.982V153.7H492.186ZM554.653 153.7V159.596H552.911V155.308H535.893L536.027 199.126C536.027 198.233 536.385 197.563 537.099 197.116C537.814 196.58 539.109 196.312 540.985 196.312H547.417V193.498H549.159V200.6H547.417V198.054H540.449C538.841 198.054 537.68 198.501 536.965 199.394C536.34 200.287 536.027 201.627 536.027 203.414V245.892H552.911V241.604H554.653V247.5H521.689V245.892H525.039V155.308H521.689V153.7H554.653ZM600.446 153.7C600.446 153.7 600.446 155.04 600.446 157.72C600.446 160.311 600.446 163.75 600.446 168.038C600.446 172.326 600.446 177.239 600.446 182.778C600.446 188.227 600.446 193.811 600.446 199.528C600.535 205.245 600.58 210.873 600.58 216.412C600.58 221.861 600.58 226.775 600.58 231.152C600.58 235.44 600.58 238.969 600.58 241.738C600.58 244.418 600.58 245.803 600.58 245.892H608.084V253.128H606.476V247.5H558.102V253.128H556.494V245.892H562.926C565.07 241.961 566.991 237.227 568.688 231.688C570.207 227.043 571.547 221.325 572.708 214.536C573.959 207.657 574.584 199.751 574.584 190.818V153.7H600.446ZM576.46 155.308V190.684C576.46 199.617 575.835 207.523 574.584 214.402C573.423 221.191 572.127 226.953 570.698 231.688C569.001 237.227 567.08 241.961 564.936 245.892H589.592V155.308H576.46ZM632.384 245.758C634.081 245.758 635.689 245.669 637.208 245.49C638.816 245.311 640.156 244.418 641.228 242.81C642.389 241.113 643.283 238.388 643.908 234.636C644.533 230.884 644.846 225.39 644.846 218.154C644.846 210.829 644.757 205.067 644.578 200.868C644.489 196.669 644.176 193.543 643.64 191.488C643.193 189.344 642.479 188.004 641.496 187.468C640.513 186.932 639.173 186.664 637.476 186.664C635.6 186.664 634.305 186.441 633.59 185.994C632.875 185.458 632.518 184.833 632.518 184.118L632.384 245.758ZM618.18 247.5V245.758H621.53V155.308H618.18V153.7H635.6V155.308H632.518V179.428C632.518 181.215 632.831 182.555 633.456 183.448C634.171 184.341 635.332 184.788 636.94 184.788C641.228 184.788 644.578 185.011 646.99 185.458C649.491 185.905 651.323 187.2 652.484 189.344C653.645 191.488 654.36 194.793 654.628 199.26C654.985 203.727 655.164 210.025 655.164 218.154C655.164 225.479 654.807 231.152 654.092 235.172C653.377 239.103 652.127 242.006 650.34 243.882C648.553 245.669 646.186 246.741 643.238 247.098C640.29 247.366 636.672 247.5 632.384 247.5H618.18Z" fill="#19192D"/>
<defs>
<linearGradient id="paint0_linear_8_97" x1="-2.31079" y1="2.4989" x2="274.191" y2="692.825" gradientUnits="userSpaceOnUse">
<stop offset="0.0897024" stop-color="#F4CF89"/>
<stop offset="0.500053" stop-color="#F46C5C"/>
<stop offset="0.906771" stop-color="#19192D"/>
</linearGradient>
</defs>
</svg>
