<svg width="360" height="220" viewBox="0 0 360 220" fill="none" xmlns="http://www.w3.org/2000/svg">
<rect width="360" height="220" rx="30" fill="url(#paint0_linear_8_97)"/>
<rect width="360" height="220" rx="30" fill="black" fill-opacity="0.2"/>
<path d="M24.92 135.8C24.8347 125.56 24.792 117.155 24.792 110.584C24.8773 104.013 24.92 98.808 24.92 94.968V84.6C24.92 82.552 25.0053 80.4187 25.176 78.2C25.3467 75.896 25.944 73.8053 26.968 71.928C27.992 70.0507 29.6133 68.5147 31.832 67.32C34.136 66.04 37.336 65.4 41.432 65.4C45.6133 65.4 48.8133 65.9547 51.032 67.064C53.336 68.088 55 69.496 56.024 71.288C57.1333 72.9947 57.7733 75 57.944 77.304C58.1147 79.608 58.1573 82.04 58.072 84.6C58.072 91.0853 58.072 96.8027 58.072 101.752C58.1573 106.616 58.2 110.883 58.2 114.552C58.2 118.136 58.2 121.165 58.2 123.64C58.2853 126.115 58.328 128.12 58.328 129.656C58.328 133.325 58.3707 135.373 58.456 135.8C58.456 139.043 58.3707 141.859 58.2 144.248C58.0293 146.637 57.3893 148.643 56.28 150.264C55.256 151.8 53.592 152.995 51.288 153.848C48.984 154.616 45.6987 155 41.432 155C37.336 155 34.136 154.616 31.832 153.848C29.6133 152.995 27.992 151.757 26.968 150.136C25.944 148.515 25.3467 146.552 25.176 144.248C25.0053 141.859 24.92 139.043 24.92 135.8ZM34.776 135.8C34.776 138.616 34.8187 141.133 34.904 143.352C34.9893 145.485 35.2027 147.32 35.544 148.856C35.9707 150.307 36.6107 151.459 37.464 152.312C38.4027 153.08 39.7253 153.464 41.432 153.464C43.0533 153.464 44.2907 153.08 45.144 152.312C46.0827 151.459 46.7653 150.307 47.192 148.856C47.6187 147.32 47.832 145.485 47.832 143.352C47.9173 141.133 47.96 138.616 47.96 135.8V127.096C47.96 123.512 47.9173 118.392 47.832 111.736C47.832 104.995 47.7893 95.9493 47.704 84.6C47.7893 82.3813 47.7893 80.248 47.704 78.2C47.6187 76.0667 47.3627 74.1893 46.936 72.568C46.5947 70.8613 45.9547 69.496 45.016 68.472C44.1627 67.448 42.968 66.936 41.432 66.936C39.7253 66.936 38.4027 67.5333 37.464 68.728C36.6107 69.8373 35.9707 71.288 35.544 73.08C35.2027 74.7867 34.9893 76.7067 34.904 78.84C34.8187 80.888 34.776 82.808 34.776 84.6V96.888C34.776 101.069 34.7333 106.403 34.648 112.888C34.648 119.288 34.6907 126.925 34.776 135.8ZM98.869 118.392C96.6503 120.952 93.9197 122.573 90.677 123.256C87.4343 123.939 84.277 123.725 81.205 122.616C78.2183 121.421 75.6583 119.331 73.525 116.344C71.3917 113.272 70.325 109.304 70.325 104.44V66.936H67.125V65.4H83.381V66.936H80.693V104.44C80.693 109.389 81.205 113.187 82.229 115.832C83.3383 118.477 84.7463 120.184 86.453 120.952C88.245 121.72 90.2077 121.635 92.341 120.696C94.5597 119.757 96.7357 118.179 98.869 115.96V66.936H95.669V65.4H111.925V66.936H109.237L109.365 153.464H111.925V155H95.669V153.464H98.869V118.392ZM151.363 65.4V71.032H149.699V66.936H133.443L133.571 108.792C133.571 107.939 133.912 107.299 134.595 106.872C135.278 106.36 136.515 106.104 138.307 106.104H144.451V103.416H146.115V110.2H144.451V107.768H137.795C136.259 107.768 135.15 108.195 134.467 109.048C133.87 109.901 133.571 111.181 133.571 112.888V153.464H149.699V149.368H151.363V155H119.875V153.464H123.075V66.936H119.875V65.4H151.363ZM172.193 66.936L172.321 126.072C172.321 125.389 172.662 124.792 173.345 124.28C174.028 123.768 175.265 123.512 177.057 123.512C178.678 123.512 179.958 123.256 180.897 122.744C181.836 122.232 182.518 120.995 182.945 119.032C183.457 116.984 183.756 113.955 183.841 109.944C184.012 105.933 184.097 100.429 184.097 93.432C184.097 86.52 183.798 81.272 183.201 77.688C182.604 74.104 181.75 71.5013 180.641 69.88C179.617 68.2587 178.337 67.3627 176.801 67.192C175.35 67.0213 173.814 66.936 172.193 66.936ZM172.193 65.4C176.289 65.4 179.745 65.5707 182.561 65.912C185.377 66.168 187.638 67.192 189.345 68.984C191.052 70.6907 192.246 73.464 192.929 77.304C193.612 81.0587 193.953 86.4347 193.953 93.432C193.953 101.197 193.782 107.213 193.441 111.48C193.185 115.747 192.502 118.904 191.393 120.952C190.284 123 188.534 124.237 186.145 124.664C183.841 125.091 180.641 125.304 176.545 125.304C175.009 125.304 173.9 125.731 173.217 126.584C172.62 127.437 172.321 128.717 172.321 130.424V153.464H174.881V155H158.625V153.464H161.825V66.936H158.625V65.4H172.193ZM231.863 65.4V71.032H230.199V66.936H213.943L214.071 108.792C214.071 107.939 214.412 107.299 215.095 106.872C215.778 106.36 217.015 106.104 218.807 106.104H224.951V103.416H226.615V110.2H224.951V107.768H218.295C216.759 107.768 215.65 108.195 214.967 109.048C214.37 109.901 214.071 111.181 214.071 112.888V153.464H230.199V149.368H231.863V155H200.375V153.464H203.575V66.936H200.375V65.4H231.863ZM275.605 65.4C275.605 65.4 275.605 66.68 275.605 69.24C275.605 71.7147 275.605 75 275.605 79.096C275.605 83.192 275.605 87.8853 275.605 93.176C275.605 98.3813 275.605 103.715 275.605 109.176C275.69 114.637 275.733 120.013 275.733 125.304C275.733 130.509 275.733 135.203 275.733 139.384C275.733 143.48 275.733 146.851 275.733 149.496C275.733 152.056 275.733 153.379 275.733 153.464H282.901V160.376H281.365V155H235.157V160.376H233.621V153.464H239.765C241.813 149.709 243.648 145.187 245.269 139.896C246.72 135.459 248 129.997 249.109 123.512C250.304 116.941 250.901 109.389 250.901 100.856V65.4H275.605ZM252.693 66.936V100.728C252.693 109.261 252.096 116.813 250.901 123.384C249.792 129.869 248.554 135.373 247.189 139.896C245.568 145.187 243.733 149.709 241.685 153.464H265.237V66.936H252.693ZM306.113 153.336C307.734 153.336 309.27 153.251 310.721 153.08C312.257 152.909 313.537 152.056 314.561 150.52C315.67 148.899 316.524 146.296 317.121 142.712C317.718 139.128 318.017 133.88 318.017 126.968C318.017 119.971 317.932 114.467 317.761 110.456C317.676 106.445 317.377 103.459 316.865 101.496C316.438 99.448 315.756 98.168 314.817 97.656C313.878 97.144 312.598 96.888 310.977 96.888C309.185 96.888 307.948 96.6747 307.265 96.248C306.582 95.736 306.241 95.1387 306.241 94.456L306.113 153.336ZM292.545 155V153.336H295.745V66.936H292.545V65.4H309.185V66.936H306.241V89.976C306.241 91.6827 306.54 92.9627 307.137 93.816C307.82 94.6693 308.929 95.096 310.465 95.096C314.561 95.096 317.761 95.3093 320.065 95.736C322.454 96.1627 324.204 97.4 325.313 99.448C326.422 101.496 327.105 104.653 327.361 108.92C327.702 113.187 327.873 119.203 327.873 126.968C327.873 133.965 327.532 139.384 326.849 143.224C326.166 146.979 324.972 149.752 323.265 151.544C321.558 153.251 319.297 154.275 316.481 154.616C313.665 154.872 310.209 155 306.113 155H292.545Z" fill="#19192D"/>
<defs>
<linearGradient id="paint0_linear_8_97" x1="-0.831886" y1="1.09939" x2="195.326" y2="321.655" gradientUnits="userSpaceOnUse">
<stop offset="0.161458" stop-color="#FFF7E9"/>
<stop offset="0.463542" stop-color="#F46C5C" stop-opacity="0.86"/>
<stop offset="0.869792" stop-color="#19192D"/>
</linearGradient>
</defs>
</svg>
