<svg width="1000" height="401" viewBox="0 0 1000 401" fill="none" xmlns="http://www.w3.org/2000/svg">
<rect y="0.5" width="1000" height="400" rx="30" fill="url(#paint0_linear_29_2)"/>
<path d="M430.786 245.892C433.734 245.892 435.789 245.713 436.95 245.356C438.201 244.999 438.915 244.552 439.094 244.016C439.273 243.391 439.139 242.676 438.692 241.872C438.335 241.068 438.022 240.264 437.754 239.46C437.486 238.567 437.441 237.673 437.62 236.78C437.799 235.797 438.647 234.859 440.166 233.966C441.417 233.251 442.578 233.073 443.65 233.43C444.811 233.787 445.66 234.457 446.196 235.44C446.821 236.423 447.089 237.629 447 239.058C446.911 240.398 446.285 241.693 445.124 242.944C444.052 244.195 442.355 245.267 440.032 246.16C437.709 247.053 434.627 247.5 430.786 247.5C426.498 247.5 423.148 247.098 420.736 246.294C418.413 245.401 416.716 244.105 415.644 242.408C414.572 240.711 413.947 238.656 413.768 236.244C413.589 233.743 413.5 230.795 413.5 227.4C413.411 216.68 413.411 207.881 413.5 201.002C413.5 194.123 413.5 188.674 413.5 184.654V173.8C413.5 171.656 413.589 169.423 413.768 167.1C413.947 164.688 414.572 162.499 415.644 160.534C416.716 158.569 418.413 156.961 420.736 155.71C423.059 154.37 426.364 153.7 430.652 153.7C434.493 153.7 437.575 154.147 439.898 155.04C442.221 155.933 443.918 157.005 444.99 158.256C446.151 159.507 446.777 160.847 446.866 162.276C446.955 163.616 446.687 164.777 446.062 165.76C445.526 166.743 444.677 167.457 443.516 167.904C442.444 168.261 441.283 168.038 440.032 167.234C438.513 166.341 437.665 165.447 437.486 164.554C437.307 163.571 437.352 162.678 437.62 161.874C437.888 160.981 438.201 160.132 438.558 159.328C439.005 158.524 439.139 157.854 438.96 157.318C438.781 156.693 438.067 156.201 436.816 155.844C435.655 155.487 433.6 155.308 430.652 155.308C428.865 155.308 427.525 155.933 426.632 157.184C425.739 158.345 425.069 159.864 424.622 161.74C424.175 163.527 423.907 165.537 423.818 167.77C423.818 169.914 423.818 171.924 423.818 173.8V186.664C423.818 191.041 423.773 196.625 423.684 203.414C423.684 210.114 423.729 218.109 423.818 227.4C423.818 230.348 423.863 232.983 423.952 235.306C424.041 237.539 424.265 239.46 424.622 241.068C425.069 242.587 425.739 243.793 426.632 244.686C427.615 245.49 428.999 245.892 430.786 245.892ZM454.899 227.4C454.809 216.68 454.765 207.881 454.765 201.002C454.854 194.123 454.899 188.674 454.899 184.654V173.8C454.899 171.656 454.988 169.423 455.167 167.1C455.345 164.688 455.971 162.499 457.043 160.534C458.115 158.569 459.812 156.961 462.135 155.71C464.547 154.37 467.897 153.7 472.185 153.7C476.562 153.7 479.912 154.281 482.235 155.442C484.647 156.514 486.389 157.988 487.461 159.864C488.622 161.651 489.292 163.75 489.471 166.162C489.649 168.574 489.694 171.12 489.605 173.8C489.605 180.589 489.605 186.575 489.605 191.756C489.694 196.848 489.739 201.315 489.739 205.156C489.739 208.908 489.739 212.079 489.739 214.67C489.828 217.261 489.873 219.36 489.873 220.968C489.873 224.809 489.917 226.953 490.007 227.4C490.007 230.795 489.917 233.743 489.739 236.244C489.56 238.745 488.89 240.845 487.729 242.542C486.657 244.15 484.915 245.401 482.503 246.294C480.091 247.098 476.651 247.5 472.185 247.5C467.897 247.5 464.547 247.098 462.135 246.294C459.812 245.401 458.115 244.105 457.043 242.408C455.971 240.711 455.345 238.656 455.167 236.244C454.988 233.743 454.899 230.795 454.899 227.4ZM465.217 227.4C465.217 230.348 465.261 232.983 465.351 235.306C465.44 237.539 465.663 239.46 466.021 241.068C466.467 242.587 467.137 243.793 468.031 244.686C469.013 245.49 470.398 245.892 472.185 245.892C473.882 245.892 475.177 245.49 476.071 244.686C477.053 243.793 477.768 242.587 478.215 241.068C478.661 239.46 478.885 237.539 478.885 235.306C478.974 232.983 479.019 230.348 479.019 227.4V218.288C479.019 214.536 478.974 209.176 478.885 202.208C478.885 195.151 478.84 185.681 478.751 173.8C478.84 171.477 478.84 169.244 478.751 167.1C478.661 164.867 478.393 162.901 477.947 161.204C477.589 159.417 476.919 157.988 475.937 156.916C475.043 155.844 473.793 155.308 472.185 155.308C470.398 155.308 469.013 155.933 468.031 157.184C467.137 158.345 466.467 159.864 466.021 161.74C465.663 163.527 465.44 165.537 465.351 167.77C465.261 169.914 465.217 171.924 465.217 173.8V186.664C465.217 191.041 465.172 196.625 465.083 203.414C465.083 210.114 465.127 218.109 465.217 227.4ZM513.286 155.308L513.42 217.216C513.42 216.501 513.777 215.876 514.492 215.34C515.207 214.804 516.502 214.536 518.378 214.536C520.075 214.536 521.415 214.268 522.398 213.732C523.381 213.196 524.095 211.901 524.542 209.846C525.078 207.702 525.391 204.531 525.48 200.332C525.659 196.133 525.748 190.371 525.748 183.046C525.748 175.81 525.435 170.316 524.81 166.564C524.185 162.812 523.291 160.087 522.13 158.39C521.058 156.693 519.718 155.755 518.11 155.576C516.591 155.397 514.983 155.308 513.286 155.308ZM513.286 153.7C517.574 153.7 521.192 153.879 524.14 154.236C527.088 154.504 529.455 155.576 531.242 157.452C533.029 159.239 534.279 162.142 534.994 166.162C535.709 170.093 536.066 175.721 536.066 183.046C536.066 191.175 535.887 197.473 535.53 201.94C535.262 206.407 534.547 209.712 533.386 211.856C532.225 214 530.393 215.295 527.892 215.742C525.48 216.189 522.13 216.412 517.842 216.412C516.234 216.412 515.073 216.859 514.358 217.752C513.733 218.645 513.42 219.985 513.42 221.772V245.892H516.1V247.5H499.082V245.892H502.432V155.308H499.082V153.7H513.286ZM580.979 153.7V160.266H579.237V155.308H565.971L566.105 245.892H568.785V247.5H551.767V245.892H555.117V155.308H542.521V160.266H540.779V153.7H580.979Z" fill="#19192D"/>
<defs>
<linearGradient id="paint0_linear_29_2" x1="1008.19" y1="400.481" x2="725.421" y2="-295.828" gradientUnits="userSpaceOnUse">
<stop stop-color="#F4CF89"/>
<stop offset="1" stop-color="#F46C5C"/>
</linearGradient>
</defs>
</svg>
