<svg width="400" height="401" viewBox="0 0 400 401" fill="none" xmlns="http://www.w3.org/2000/svg">
<rect y="0.5" width="400" height="400" rx="30" fill="url(#paint0_linear_8_116)"/>
<path d="M75.7616 245.892C78.7096 245.892 80.7643 245.713 81.9256 245.356C83.1763 244.999 83.8909 244.552 84.0696 244.016C84.2483 243.391 84.1143 242.676 83.6676 241.872C83.3103 241.068 82.9976 240.264 82.7296 239.46C82.4616 238.567 82.4169 237.673 82.5956 236.78C82.7743 235.797 83.6229 234.859 85.1416 233.966C86.3923 233.251 87.5536 233.073 88.6256 233.43C89.7869 233.787 90.6356 234.457 91.1716 235.44C91.7969 236.423 92.0649 237.629 91.9756 239.058C91.8863 240.398 91.2609 241.693 90.0996 242.944C89.0276 244.195 87.3303 245.267 85.0076 246.16C82.6849 247.053 79.6029 247.5 75.7616 247.5C71.4736 247.5 68.1236 247.098 65.7116 246.294C63.3889 245.401 61.6916 244.105 60.6196 242.408C59.5476 240.711 58.9223 238.656 58.7436 236.244C58.5649 233.743 58.4756 230.795 58.4756 227.4C58.3863 216.68 58.3863 207.881 58.4756 201.002C58.4756 194.123 58.4756 188.674 58.4756 184.654V173.8C58.4756 171.656 58.5649 169.423 58.7436 167.1C58.9223 164.688 59.5476 162.499 60.6196 160.534C61.6916 158.569 63.3889 156.961 65.7116 155.71C68.0343 154.37 71.3396 153.7 75.6276 153.7C79.4689 153.7 82.5509 154.147 84.8736 155.04C87.1963 155.933 88.8936 157.005 89.9656 158.256C91.1269 159.507 91.7523 160.847 91.8416 162.276C91.9309 163.616 91.6629 164.777 91.0376 165.76C90.5016 166.743 89.6529 167.457 88.4916 167.904C87.4196 168.261 86.2583 168.038 85.0076 167.234C83.4889 166.341 82.6403 165.447 82.4616 164.554C82.2829 163.571 82.3276 162.678 82.5956 161.874C82.8636 160.981 83.1763 160.132 83.5336 159.328C83.9803 158.524 84.1143 157.854 83.9356 157.318C83.7569 156.693 83.0423 156.201 81.7916 155.844C80.6303 155.487 78.5756 155.308 75.6276 155.308C73.8409 155.308 72.5009 155.933 71.6076 157.184C70.7143 158.345 70.0443 159.864 69.5976 161.74C69.1509 163.527 68.8829 165.537 68.7936 167.77C68.7936 169.914 68.7936 171.924 68.7936 173.8V186.664C68.7936 191.041 68.7489 196.625 68.6596 203.414C68.6596 210.114 68.7043 218.109 68.7936 227.4C68.7936 230.348 68.8383 232.983 68.9276 235.306C69.0169 237.539 69.2403 239.46 69.5976 241.068C70.0443 242.587 70.7143 243.793 71.6076 244.686C72.5903 245.49 73.9749 245.892 75.7616 245.892ZM112.068 155.308L112.202 245.892H114.882V247.5H97.8643V245.892H101.214V155.308H97.8643V153.7H142.754V155.308H139.94L140.074 245.892H142.754V247.5H125.736V245.892H129.086V155.308H112.068ZM183.568 175.14C183.568 175.14 183.255 175.989 182.63 177.686C182.094 179.294 181.379 181.483 180.486 184.252C179.682 186.932 178.699 190.014 177.538 193.498C176.466 196.982 175.349 200.511 174.188 204.084C171.418 212.571 168.292 222.174 164.808 232.894V245.892H167.488V247.5H150.47V245.892H153.82V155.308H150.47V153.7H167.488V155.308H164.674L164.808 227.668C164.808 227.668 165.076 226.864 165.612 225.256C166.237 223.559 166.996 221.37 167.89 218.69C168.783 215.921 169.766 212.839 170.838 209.444C171.999 205.96 173.16 202.387 174.322 198.724C177.091 190.237 180.173 180.634 183.568 169.914V155.308H180.218V153.7H197.236V155.308H194.422L194.556 245.892H197.236V247.5H180.218V245.892H183.568V175.14ZM222.717 245.892C225.665 245.892 227.719 245.713 228.881 245.356C230.131 244.999 230.846 244.552 231.025 244.016C231.203 243.391 231.069 242.676 230.623 241.872C230.265 241.068 229.953 240.264 229.685 239.46C229.417 238.567 229.372 237.673 229.551 236.78C229.729 235.797 230.578 234.859 232.097 233.966C233.347 233.251 234.509 233.073 235.581 233.43C236.742 233.787 237.591 234.457 238.127 235.44C238.752 236.423 239.02 237.629 238.931 239.058C238.841 240.398 238.216 241.693 237.055 242.944C235.983 244.195 234.285 245.267 231.963 246.16C229.64 247.053 226.558 247.5 222.717 247.5C218.429 247.5 215.079 247.098 212.667 246.294C210.344 245.401 208.647 244.105 207.575 242.408C206.503 240.711 205.877 238.656 205.699 236.244C205.52 233.743 205.431 230.795 205.431 227.4C205.341 216.68 205.341 207.881 205.431 201.002C205.431 194.123 205.431 188.674 205.431 184.654V173.8C205.431 171.656 205.52 169.423 205.699 167.1C205.877 164.688 206.503 162.499 207.575 160.534C208.647 158.569 210.344 156.961 212.667 155.71C214.989 154.37 218.295 153.7 222.583 153.7C226.424 153.7 229.506 154.147 231.829 155.04C234.151 155.933 235.849 157.005 236.921 158.256C238.082 159.507 238.707 160.847 238.797 162.276C238.886 163.616 238.618 164.777 237.993 165.76C237.457 166.743 236.608 167.457 235.447 167.904C234.375 168.261 233.213 168.038 231.963 167.234C230.444 166.341 229.595 165.447 229.417 164.554C229.238 163.571 229.283 162.678 229.551 161.874C229.819 160.981 230.131 160.132 230.489 159.328C230.935 158.524 231.069 157.854 230.891 157.318C230.712 156.693 229.997 156.201 228.747 155.844C227.585 155.487 225.531 155.308 222.583 155.308C220.796 155.308 219.456 155.933 218.563 157.184C217.669 158.345 216.999 159.864 216.553 161.74C216.106 163.527 215.838 165.537 215.749 167.77C215.749 169.914 215.749 171.924 215.749 173.8V186.664C215.749 191.041 215.704 196.625 215.615 203.414C215.615 210.114 215.659 218.109 215.749 227.4C215.749 230.348 215.793 232.983 215.883 235.306C215.972 237.539 216.195 239.46 216.553 241.068C216.999 242.587 217.669 243.793 218.563 244.686C219.545 245.49 220.93 245.892 222.717 245.892ZM246.829 227.4C246.74 216.68 246.695 207.881 246.695 201.002C246.785 194.123 246.829 188.674 246.829 184.654V173.8C246.829 171.656 246.919 169.423 247.097 167.1C247.276 164.688 247.901 162.499 248.973 160.534C250.045 158.569 251.743 156.961 254.065 155.71C256.477 154.37 259.827 153.7 264.115 153.7C268.493 153.7 271.843 154.281 274.165 155.442C276.577 156.514 278.319 157.988 279.391 159.864C280.553 161.651 281.223 163.75 281.401 166.162C281.58 168.574 281.625 171.12 281.535 173.8C281.535 180.589 281.535 186.575 281.535 191.756C281.625 196.848 281.669 201.315 281.669 205.156C281.669 208.908 281.669 212.079 281.669 214.67C281.759 217.261 281.803 219.36 281.803 220.968C281.803 224.809 281.848 226.953 281.937 227.4C281.937 230.795 281.848 233.743 281.669 236.244C281.491 238.745 280.821 240.845 279.659 242.542C278.587 244.15 276.845 245.401 274.433 246.294C272.021 247.098 268.582 247.5 264.115 247.5C259.827 247.5 256.477 247.098 254.065 246.294C251.743 245.401 250.045 244.105 248.973 242.408C247.901 240.711 247.276 238.656 247.097 236.244C246.919 233.743 246.829 230.795 246.829 227.4ZM257.147 227.4C257.147 230.348 257.192 232.983 257.281 235.306C257.371 237.539 257.594 239.46 257.951 241.068C258.398 242.587 259.068 243.793 259.961 244.686C260.944 245.49 262.329 245.892 264.115 245.892C265.813 245.892 267.108 245.49 268.001 244.686C268.984 243.793 269.699 242.587 270.145 241.068C270.592 239.46 270.815 237.539 270.815 235.306C270.905 232.983 270.949 230.348 270.949 227.4V218.288C270.949 214.536 270.905 209.176 270.815 202.208C270.815 195.151 270.771 185.681 270.681 173.8C270.771 171.477 270.771 169.244 270.681 167.1C270.592 164.867 270.324 162.901 269.877 161.204C269.52 159.417 268.85 157.988 267.867 156.916C266.974 155.844 265.723 155.308 264.115 155.308C262.329 155.308 260.944 155.933 259.961 157.184C259.068 158.345 258.398 159.864 257.951 161.74C257.594 163.527 257.371 165.537 257.281 167.77C257.192 169.914 257.147 171.924 257.147 173.8V186.664C257.147 191.041 257.103 196.625 257.013 203.414C257.013 210.114 257.058 218.109 257.147 227.4ZM319.019 168.172C319.644 164.42 320.582 161.472 321.833 159.328C323.173 157.184 324.557 155.665 325.987 154.772C327.505 153.879 328.979 153.521 330.409 153.7C331.838 153.879 332.999 154.37 333.893 155.174C334.786 155.889 335.322 156.871 335.501 158.122C335.769 159.283 335.411 160.445 334.429 161.606C333.267 162.857 332.195 163.527 331.213 163.616C330.319 163.616 329.426 163.393 328.533 162.946C327.729 162.499 326.969 162.008 326.255 161.472C325.54 160.847 324.87 160.579 324.245 160.668C323.619 160.757 323.039 161.383 322.503 162.544C321.967 163.705 321.431 165.715 320.895 168.574C319.912 173.13 319.376 177.15 319.287 180.634C319.197 184.118 318.929 187.021 318.483 189.344C318.036 191.667 317.098 193.409 315.669 194.57C314.329 195.731 311.961 196.312 308.567 196.312C312.676 196.312 316.071 196.803 318.751 197.786C321.52 198.679 323.709 200.109 325.317 202.074C327.014 203.95 328.175 206.362 328.801 209.31C329.515 212.169 329.873 215.519 329.873 219.36C329.962 223.648 330.007 227.445 330.007 230.75C330.007 234.055 330.141 236.825 330.409 239.058C330.766 241.202 331.347 242.855 332.151 244.016C332.955 245.177 334.25 245.758 336.037 245.758V247.5C331.749 247.5 328.443 246.875 326.121 245.624C323.798 244.373 322.101 242.542 321.029 240.13C319.957 237.718 319.331 234.77 319.153 231.286C319.063 227.802 319.019 223.827 319.019 219.36C319.019 214 318.527 209.935 317.545 207.166C316.562 204.307 315.356 202.253 313.927 201.002C312.497 199.751 310.979 199.081 309.371 198.992C307.763 198.813 306.378 198.724 305.217 198.724L305.351 245.892H308.031V247.5H291.013V245.892H294.363V155.308H291.013V153.7H308.031V155.308H305.217V195.24C309.058 195.24 311.738 194.838 313.257 194.034C314.775 193.141 315.758 191.667 316.205 189.612C316.741 187.468 317.053 184.699 317.143 181.304C317.321 177.82 317.947 173.443 319.019 168.172Z" fill="#19192D"/>
<defs>
<linearGradient id="paint0_linear_8_116" x1="-0.924318" y1="2.4989" x2="399.613" y2="402.499" gradientUnits="userSpaceOnUse">
<stop offset="0.0897024" stop-color="#F4CF89"/>
<stop offset="0.682995" stop-color="#245559"/>
<stop offset="1" stop-color="#19192D"/>
</linearGradient>
</defs>
</svg>
