<svg width="400" height="401" viewBox="0 0 400 401" fill="none" xmlns="http://www.w3.org/2000/svg">
<rect y="0.5" width="400" height="400" rx="30" fill="url(#paint0_linear_29_2)"/>
<path d="M130.786 245.892C133.734 245.892 135.789 245.713 136.95 245.356C138.201 244.999 138.915 244.552 139.094 244.016C139.273 243.391 139.139 242.676 138.692 241.872C138.335 241.068 138.022 240.264 137.754 239.46C137.486 238.567 137.441 237.673 137.62 236.78C137.799 235.797 138.647 234.859 140.166 233.966C141.417 233.251 142.578 233.073 143.65 233.43C144.811 233.787 145.66 234.457 146.196 235.44C146.821 236.423 147.089 237.629 147 239.058C146.911 240.398 146.285 241.693 145.124 242.944C144.052 244.195 142.355 245.267 140.032 246.16C137.709 247.053 134.627 247.5 130.786 247.5C126.498 247.5 123.148 247.098 120.736 246.294C118.413 245.401 116.716 244.105 115.644 242.408C114.572 240.711 113.947 238.656 113.768 236.244C113.589 233.743 113.5 230.795 113.5 227.4C113.411 216.68 113.411 207.881 113.5 201.002C113.5 194.123 113.5 188.674 113.5 184.654V173.8C113.5 171.656 113.589 169.423 113.768 167.1C113.947 164.688 114.572 162.499 115.644 160.534C116.716 158.569 118.413 156.961 120.736 155.71C123.059 154.37 126.364 153.7 130.652 153.7C134.493 153.7 137.575 154.147 139.898 155.04C142.221 155.933 143.918 157.005 144.99 158.256C146.151 159.507 146.777 160.847 146.866 162.276C146.955 163.616 146.687 164.777 146.062 165.76C145.526 166.743 144.677 167.457 143.516 167.904C142.444 168.261 141.283 168.038 140.032 167.234C138.513 166.341 137.665 165.447 137.486 164.554C137.307 163.571 137.352 162.678 137.62 161.874C137.888 160.981 138.201 160.132 138.558 159.328C139.005 158.524 139.139 157.854 138.96 157.318C138.781 156.693 138.067 156.201 136.816 155.844C135.655 155.487 133.6 155.308 130.652 155.308C128.865 155.308 127.525 155.933 126.632 157.184C125.739 158.345 125.069 159.864 124.622 161.74C124.175 163.527 123.907 165.537 123.818 167.77C123.818 169.914 123.818 171.924 123.818 173.8V186.664C123.818 191.041 123.773 196.625 123.684 203.414C123.684 210.114 123.729 218.109 123.818 227.4C123.818 230.348 123.863 232.983 123.952 235.306C124.041 237.539 124.265 239.46 124.622 241.068C125.069 242.587 125.739 243.793 126.632 244.686C127.615 245.49 128.999 245.892 130.786 245.892ZM154.899 227.4C154.809 216.68 154.765 207.881 154.765 201.002C154.854 194.123 154.899 188.674 154.899 184.654V173.8C154.899 171.656 154.988 169.423 155.167 167.1C155.345 164.688 155.971 162.499 157.043 160.534C158.115 158.569 159.812 156.961 162.135 155.71C164.547 154.37 167.897 153.7 172.185 153.7C176.562 153.7 179.912 154.281 182.235 155.442C184.647 156.514 186.389 157.988 187.461 159.864C188.622 161.651 189.292 163.75 189.471 166.162C189.649 168.574 189.694 171.12 189.605 173.8C189.605 180.589 189.605 186.575 189.605 191.756C189.694 196.848 189.739 201.315 189.739 205.156C189.739 208.908 189.739 212.079 189.739 214.67C189.828 217.261 189.873 219.36 189.873 220.968C189.873 224.809 189.917 226.953 190.007 227.4C190.007 230.795 189.917 233.743 189.739 236.244C189.56 238.745 188.89 240.845 187.729 242.542C186.657 244.15 184.915 245.401 182.503 246.294C180.091 247.098 176.651 247.5 172.185 247.5C167.897 247.5 164.547 247.098 162.135 246.294C159.812 245.401 158.115 244.105 157.043 242.408C155.971 240.711 155.345 238.656 155.167 236.244C154.988 233.743 154.899 230.795 154.899 227.4ZM165.217 227.4C165.217 230.348 165.261 232.983 165.351 235.306C165.44 237.539 165.663 239.46 166.021 241.068C166.467 242.587 167.137 243.793 168.031 244.686C169.013 245.49 170.398 245.892 172.185 245.892C173.882 245.892 175.177 245.49 176.071 244.686C177.053 243.793 177.768 242.587 178.215 241.068C178.661 239.46 178.885 237.539 178.885 235.306C178.974 232.983 179.019 230.348 179.019 227.4V218.288C179.019 214.536 178.974 209.176 178.885 202.208C178.885 195.151 178.84 185.681 178.751 173.8C178.84 171.477 178.84 169.244 178.751 167.1C178.661 164.867 178.393 162.901 177.947 161.204C177.589 159.417 176.919 157.988 175.937 156.916C175.043 155.844 173.793 155.308 172.185 155.308C170.398 155.308 169.013 155.933 168.031 157.184C167.137 158.345 166.467 159.864 166.021 161.74C165.663 163.527 165.44 165.537 165.351 167.77C165.261 169.914 165.217 171.924 165.217 173.8V186.664C165.217 191.041 165.172 196.625 165.083 203.414C165.083 210.114 165.127 218.109 165.217 227.4ZM213.286 155.308L213.42 217.216C213.42 216.501 213.777 215.876 214.492 215.34C215.207 214.804 216.502 214.536 218.378 214.536C220.075 214.536 221.415 214.268 222.398 213.732C223.381 213.196 224.095 211.901 224.542 209.846C225.078 207.702 225.391 204.531 225.48 200.332C225.659 196.133 225.748 190.371 225.748 183.046C225.748 175.81 225.435 170.316 224.81 166.564C224.185 162.812 223.291 160.087 222.13 158.39C221.058 156.693 219.718 155.755 218.11 155.576C216.591 155.397 214.983 155.308 213.286 155.308ZM213.286 153.7C217.574 153.7 221.192 153.879 224.14 154.236C227.088 154.504 229.455 155.576 231.242 157.452C233.029 159.239 234.279 162.142 234.994 166.162C235.709 170.093 236.066 175.721 236.066 183.046C236.066 191.175 235.887 197.473 235.53 201.94C235.262 206.407 234.547 209.712 233.386 211.856C232.225 214 230.393 215.295 227.892 215.742C225.48 216.189 222.13 216.412 217.842 216.412C216.234 216.412 215.073 216.859 214.358 217.752C213.733 218.645 213.42 219.985 213.42 221.772V245.892H216.1V247.5H199.082V245.892H202.432V155.308H199.082V153.7H213.286ZM280.979 153.7V160.266H279.237V155.308H265.971L266.105 245.892H268.785V247.5H251.767V245.892H255.117V155.308H242.521V160.266H240.779V153.7H280.979Z" fill="#19192D"/>
<defs>
<linearGradient id="paint0_linear_29_2" x1="-0.924318" y1="2.4989" x2="399.613" y2="402.499" gradientUnits="userSpaceOnUse">
<stop offset="0.0897024" stop-color="#F4CF89"/>
<stop offset="0.500053" stop-color="#F46C5C"/>
<stop offset="0.906771" stop-color="#19192D"/>
</linearGradient>
</defs>
</svg>
